<?xml version="1.0" encoding="utf-8"?>
<!-- Generator: Adobe Illustrator 25.4.1, SVG Export Plug-In . SVG Version: 6.00 Build 0)  -->
<svg version="1.1" id="Layer_5" xmlns="http://www.w3.org/2000/svg" xmlns:xlink="http://www.w3.org/1999/xlink" x="0px" y="0px"
	 viewBox="0 0 20 20" style="enable-background:new 0 0 20 20;" xml:space="preserve">
<style type="text/css">
	.st0{fill:none;stroke:#333333;stroke-width:1.6077;stroke-linecap:round;stroke-linejoin:round;}
	.st1{fill:#D39F4B;}
</style>
<g>
	<g>
		<g>
			<path class="st0" d="M5.5,1.2C4.6,1.2,3.8,2,3.8,3.1v14c0-1,0.8-1.9,1.7-1.9h11.3v-14C16.8,1.2,5.5,1.2,5.5,1.2z"/>
			<path class="st0" d="M3.8,16.9c0,1,0.8,1.9,1.7,1.9h11.3v-3.7"/>
		</g>
	</g>
</g>
<path class="st1" d="M10.4,4.4c-2,0-3.5,1.5-3.5,3.6s1.5,3.7,3.5,3.7c1.5,0,2.8-0.8,3.2-2.1l0.1-0.2h-1.6l-0.1,0.1
	c-0.2,0.5-0.9,0.9-1.7,0.9c-1,0-1.7-0.6-1.9-1.6h5.4l0-0.1c0-0.2,0-0.4,0-0.5C13.9,6,12.4,4.4,10.4,4.4z M8.5,7.4
	c0.2-1,0.9-1.6,1.9-1.6s1.7,0.6,1.9,1.6H8.5z"/>
</svg>
