<svg xmlns="http://www.w3.org/2000/svg" id="prefix__btn_share" width="18" height="17.901" viewBox="0 0 18 17.901">
    <defs>
        <style>
            .prefix__cls-1{fill:#05c4c4}
        </style>
    </defs>
    <g id="prefix__그룹_339" data-name="그룹 339" transform="translate(-758.218 -246.796)">
        <path id="prefix__패스_2264" d="M776.2 255.119a.75.75 0 0 0-.75-.748h-3.19a.75.75 0 0 0 0 1.5h2.44l.014 7.326h-14.981l-.014-7.326h2.445a.75.75 0 0 0 0-1.5h-3.2a.749.749 0 0 0-.75.751l.016 8.826a.75.75 0 0 0 .75.749h16.484a.749.749 0 0 0 .75-.752z" class="prefix__cls-1" data-name="패스 2264"/>
        <path id="prefix__패스_2265" d="M763.321 252.277a.746.746 0 0 0 .531-.22l2.616-2.616v8.968a.75.75 0 0 0 1.5 0V249.3l2.616 2.615a.75.75 0 1 0 1.061-1.06l-3.762-3.762a.72.72 0 0 0-.621-.29.749.749 0 0 0-.6.326L762.791 251a.75.75 0 0 0 .53 1.28z" class="prefix__cls-1" data-name="패스 2265"/>
    </g>
</svg>
