<svg xmlns="http://www.w3.org/2000/svg" id="prefix__btn_cart" width="18" height="17.664" viewBox="0 0 18 17.664">
    <path id="prefix__패스_2270" d="M976.894 263.341a.753.753 0 0 0-.566-.257h-3.473a5.92 5.92 0 0 0-1.5-3.828 4.9 4.9 0 0 0-6.555 0 5.939 5.939 0 0 0-1.5 3.829h-3.473a.75.75 0 0 0-.743.852l1.519 11.077a.749.749 0 0 0 .743.648h13.474a.749.749 0 0 0 .743-.649l1.508-11.077a.751.751 0 0 0-.177-.595zm-8.813-3.844a2.847 2.847 0 0 1 2.833 1.728 5.131 5.131 0 0 1 .44 1.859H964.8c.015-.592.234-3.584 3.281-3.584zm6.084 14.664H962l-1.314-9.577h14.782z" data-name="패스 2270" transform="translate(-959.078 -257.997)" style="fill:#333"/>
</svg>
