<svg xmlns="http://www.w3.org/2000/svg" id="prefix__btn_wish_on" width="18" height="16.546" viewBox="0 0 18 16.546">
    <path id="prefix__패스_2197" d="M899.573 238.543c0-.063-.01-.11-.015-.144a5.291 5.291 0 0 0-5.061-5.111 5.013 5.013 0 0 0-3.953 1.952 4.81 4.81 0 0 0-3.866-1.952c-2.709 0-4.8 2.243-5.067 5.127q-.008.051-.015.123a5.737 5.737 0 0 0 .17 1.836c.393 1.614 2.505 4.179 2.505 4.179l5.795 5.1a.749.749 0 0 0 .988 0l5.837-5.084a8.724 8.724 0 0 0 2.518-4.2 6.382 6.382 0 0 0 .164-1.826z" data-name="패스 2197" transform="translate(-881.582 -233.288)" style="fill:#05c4c4"/>
</svg>
