<svg xmlns="http://www.w3.org/2000/svg" width="18" height="16.546" viewBox="0 0 18 16.546">
    <g id="prefix__btn_heart" transform="translate(-117 -28)">
        <g id="prefix__btn_wish" transform="translate(117 28)">
            <g id="prefix__그룹_298" data-name="그룹 298" transform="translate(-911.582 -233.288)">
                <path id="prefix__패스_2197" d="M899.573 238.543c0-.063-.01-.11-.015-.144a5.291 5.291 0 0 0-5.061-5.111 5.013 5.013 0 0 0-3.953 1.952 4.81 4.81 0 0 0-3.866-1.952c-2.709 0-4.8 2.243-5.067 5.127q-.008.051-.015.123a5.737 5.737 0 0 0 .17 1.836 8.219 8.219 0 0 0 2.505 4.179l5.795 5.1a.749.749 0 0 0 .988 0l5.837-5.084a8.724 8.724 0 0 0 2.518-4.2 6.382 6.382 0 0 0 .164-1.826zm-1.629 1.5a7.32 7.32 0 0 1-2.087 3.443l-5.293 4.607-5.3-4.654a6.72 6.72 0 0 1-2.043-3.408 4.287 4.287 0 0 1-.137-1.344 1.038 1.038 0 0 1 .014-.106 3.826 3.826 0 0 1 3.572-3.788 3.433 3.433 0 0 1 3.17 2.224.75.75 0 0 0 1.382 0 3.567 3.567 0 0 1 3.269-2.224 3.826 3.826 0 0 1 3.573 3.789l.008.082a4.957 4.957 0 0 1-.128 1.378z" data-name="패스 2197" transform="translate(30)" style="fill:#05c4c4"/>
            </g>
        </g>
    </g>
</svg>
