<svg xmlns="http://www.w3.org/2000/svg" width="24" height="22.428" viewBox="0 0 24 22.428">
    <defs>
        <style>
            .prefix__cls-1{fill:#333}
        </style>
    </defs>
    <g id="prefix__icon_consult02" transform="translate(-841.609 -202.038)">
        <path id="prefix__패스_2216" d="M865.609 212.2c0-5.606-5.382-10.166-12-10.166s-12 4.56-12 10.166 5.383 10.167 12 10.167a14 14 0 0 0 3.387-.418l4.526 2.4a1 1 0 0 0 1.467-.927l-.2-4.68a9.259 9.259 0 0 0 2.82-6.542zm-4.518 5.4a1 1 0 0 0-.32.778l.145 3.387-3.33-1.765a1 1 0 0 0-.738-.079 11.959 11.959 0 0 1-3.239.448c-5.513 0-10-3.663-10-8.167s4.487-8.166 10-8.166 10 3.663 10 8.166a7.364 7.364 0 0 1-2.518 5.398z" class="prefix__cls-1" data-name="패스 2216"/>
        <path id="prefix__패스_2217" d="M848.372 210.371a1.572 1.572 0 1 0 1.571 1.571 1.571 1.571 0 0 0-1.571-1.571z" class="prefix__cls-1" data-name="패스 2217"/>
        <path id="prefix__패스_2218" d="M853.61 210.371a1.572 1.572 0 1 0 1.571 1.571 1.571 1.571 0 0 0-1.571-1.571z" class="prefix__cls-1" data-name="패스 2218"/>
        <path id="prefix__패스_2219" d="M858.848 210.371a1.572 1.572 0 1 0 1.571 1.571 1.571 1.571 0 0 0-1.571-1.571z" class="prefix__cls-1" data-name="패스 2219"/>
    </g>
</svg>
