<svg xmlns="http://www.w3.org/2000/svg" width="24" height="23.55" viewBox="0 0 24 23.55">
    <path id="prefix__icon_cart02" d="M706.811 200.7a.923.923 0 0 0-.7-.316h-4.741a7.959 7.959 0 0 0-1.987-5.165 6.491 6.491 0 0 0-8.683 0 7.966 7.966 0 0 0-1.994 5.166h-4.746a.923.923 0 0 0-.914 1.048l2.039 14.874a.922.922 0 0 0 .914.8h18.091a.923.923 0 0 0 .915-.8l2.024-14.874a.92.92 0 0 0-.218-.733zm-14.8-4.18a4.664 4.664 0 0 1 6.056-.008 6.153 6.153 0 0 1 1.458 3.872h-8.971a6.209 6.209 0 0 1 1.456-3.868zm11.276 18.737h-16.48l-1.786-13.027h20.039z" transform="translate(-683.038 -193.55)" style="fill:#303030"/>
</svg>
