<svg xmlns="http://www.w3.org/2000/svg" width="18" height="20" viewBox="0 0 18 20">
    <defs>
        <style>
            .prefix__cls-1{fill:#333}
        </style>
    </defs>
    <g id="prefix__icon_password" transform="translate(-951.28 -279.372)">
        <path id="prefix__패스_2314" d="M967.719 286.976h-.872v-2.066c0-3.053-2.947-5.539-6.573-5.539s-6.571 2.486-6.571 5.534v2.066h-.868a1.45 1.45 0 0 0-1.555 1.31v9.78a1.45 1.45 0 0 0 1.555 1.31h14.888a1.451 1.451 0 0 0 1.557-1.31v-9.78a1.459 1.459 0 0 0-1.561-1.306zm-12.038-2.07c0-2.134 2.059-3.869 4.594-3.869s4.595 1.734 4.595 3.869v2.061h-9.189zm11.611 12.8h-14.034v-9.066H967.3v9.066zm0 0" class="prefix__cls-1" data-name="패스 2314"/>
        <path id="prefix__패스_2315" d="M958.1 294.753a.748.748 0 0 0 .75-.749v-1.933a.75.75 0 0 0-1.5 0V294a.75.75 0 0 0 .749.749zm0 0" class="prefix__cls-1" data-name="패스 2315" transform="translate(2.177 2)"/>
    </g>
</svg>
