<svg xmlns="http://www.w3.org/2000/svg" width="24" height="22.061" viewBox="0 0 24 22.061">
    <g id="prefix__icon_heart" transform="translate(0 -1)">
        <path id="prefix__패스_2197" d="M810.215 301.976c-.006-.084-.014-.147-.02-.192-.336-3.8-3.126-6.814-6.748-6.814a6.681 6.681 0 0 0-5.271 2.6 6.408 6.408 0 0 0-5.155-2.6c-3.612 0-6.4 2.99-6.755 6.835-.007.045-.014.1-.02.164a7.622 7.622 0 0 0 .226 2.448 10.969 10.969 0 0 0 3.34 5.573l7.727 6.793a1 1 0 0 0 1.317 0l7.783-6.783a11.633 11.633 0 0 0 3.361-5.6 8.539 8.539 0 0 0 .215-2.424zm-2.172 2a9.763 9.763 0 0 1-2.783 4.59l-7.058 6.143-7.061-6.206a8.952 8.952 0 0 1-2.725-4.544 5.689 5.689 0 0 1-.182-1.791c0-.036.018-.141.018-.141.257-2.9 2.255-5.052 4.763-5.052a4.578 4.578 0 0 1 4.227 2.966 1 1 0 0 0 1.842 0 4.758 4.758 0 0 1 4.359-2.966c2.508 0 4.506 2.156 4.763 5.052.008.058.009.074.012.11a6.62 6.62 0 0 1-.175 1.838z" data-name="패스 2197" transform="translate(-786.227 -293.97)" style="fill:#303030"/>
    </g>
</svg>
