<svg xmlns="http://www.w3.org/2000/svg" width="66.943" height="52.425" viewBox="0 0 66.943 52.425">
    <defs>
        <style>
            .prefix__cls-2{fill:#fff}
        </style>
    </defs>
    <g id="prefix__img_logo" transform="translate(221.324 592.667)">
        <g id="prefix__그룹_263" data-name="그룹 263" transform="translate(-221.324 -592.667)">
            <path id="prefix__합치기_53" d="M8.811 45.507v-.015c-.011-.044-.02-.088-.028-.134L3.2 11.62a2.682 2.682 0 0 1-.41.031A2.853 2.853 0 0 1 0 8.739a2.851 2.851 0 0 1 2.789-2.912 2.851 2.851 0 0 1 2.789 2.912 3.027 3.027 0 0 1-.122.853l12.4 8.893a4.255 4.255 0 0 0 6.057-1.143L31.771 5.62a2.5 2.5 0 0 1 .172-.269 2.945 2.945 0 0 1-1.261-2.436 2.792 2.792 0 1 1 5.578 0 2.964 2.964 0 0 1-.916 2.158 2.417 2.417 0 0 1 .409.547l7.765 11.552a4.255 4.255 0 0 0 6.037 1.151l12-8.522a3.012 3.012 0 0 1-.191-1.061 2.793 2.793 0 1 1 5.58 0 2.854 2.854 0 0 1-2.789 2.912h-.048L58.6 44.918v.086c.035 3.95-11.008 7.287-24.785 7.418h-.842c-13.387.003-24.127-3.046-24.162-6.915z" data-name="합치기 53" style="fill:#05c4c4"/>
            <g id="prefix__그룹_262" data-name="그룹 262" transform="translate(14.954 40.338)">
                <ellipse id="prefix__타원_268" cx="19.629" cy="4.191" class="prefix__cls-2" data-name="타원 268" rx="19.629" ry="4.191" transform="rotate(-.522 39.295 .179)"/>
            </g>
        </g>
        <g id="prefix__그룹_264" data-name="그룹 264" transform="translate(-192.824 -571.37)">
            <path id="prefix__패스_2168" d="M-63.58-473.928h-3.4v-4.011a1.313 1.313 0 0 0-1.309-1.309h-.149a1.312 1.312 0 0 0-1.308 1.309v5.47a1.312 1.312 0 0 0 1.309 1.309h4.857a1.313 1.313 0 0 0 1.309-1.309v-.149a1.313 1.313 0 0 0-1.309-1.31z" class="prefix__cls-2" data-name="패스 2168" transform="translate(74.896 482.857)"/>
            <path id="prefix__사각형_1576" d="M1.383 0a1.383 1.383 0 0 1 1.383 1.383v5.31a1.383 1.383 0 0 1-1.383 1.384A1.383 1.383 0 0 1 0 6.694V1.383A1.383 1.383 0 0 1 1.383 0z" class="prefix__cls-2" data-name="사각형 1576" transform="translate(.001 3.609)"/>
            <circle id="prefix__타원_269" cx="1.384" cy="1.384" r="1.384" class="prefix__cls-2" data-name="타원 269"/>
            <circle id="prefix__타원_270" cx="1.384" cy="1.384" r="1.384" class="prefix__cls-2" data-name="타원 270" transform="translate(5.15)"/>
        </g>
    </g>
</svg>
