<svg xmlns="http://www.w3.org/2000/svg" width="35.033" height="6.554" viewBox="0 0 35.033 6.554">
    <g id="prefix__logo_coway" transform="translate(-58.537 -58.623)">
        <path id="prefix__합치기_59" d="M-3908.669 588.676a9.045 9.045 0 0 0 .676-2.274 3.922 3.922 0 0 1-1.885.406c-2.192 0-2.376-1.569-2.376-1.569a4.374 4.374 0 0 1-.028-1.672h.9a3.768 3.768 0 0 0 .094 1.67c.23.507.732.669 1.425.691a2.805 2.805 0 0 0 2-.637 8 8 0 0 0-.053-1.724h.894a10.945 10.945 0 0 1-.686 5.107zm-32.294-3.571c0-1.309 1.349-1.982 3.1-1.982a6.494 6.494 0 0 1 2.5.479l-.293.8a6.279 6.279 0 0 0-2.2-.377c-1.2 0-2.122.375-2.123 1.083s.922 1.083 2.123 1.083a6.406 6.406 0 0 0 2.214-.377l.294.8a6.592 6.592 0 0 1-2.508.478c-1.758-.006-3.107-.678-3.107-1.992zm8.945 1.953c-1.7 0-3.012-.657-3.013-1.953s1.314-1.953 3.013-1.953c1.633 0 3.011.657 3.012 1.953s-1.314 1.953-3.012 1.953zm0-.875c1.145 0 2.023-.376 2.024-1.078s-.93-1.078-2.024-1.078c-1.145 0-2.024.377-2.024 1.078s.879 1.078 2.024 1.078zm12.9-.9a1.809 1.809 0 0 1 .894-1.6 3.38 3.38 0 0 1 1.79-.506 3.54 3.54 0 0 1 2.652 1.009 6.308 6.308 0 0 1 1.35 2.626h-.913a7.615 7.615 0 0 0-.392-.975 3.667 3.667 0 0 1-2.777 1.21h-.069c-.398-.004-2.397-.089-2.534-1.767zm.971-.051c.064.726.968.94 1.643.933a2.849 2.849 0 0 0 2.266-1.108 2.587 2.587 0 0 0-2.118-1.018c-1.259-.001-1.838.653-1.79 1.19zm-5.894-.009c-.672 0-1.147 1.627-2.341 1.627-.711 0-1.6-.6-2.342-3.277h1.021c.1.525.687 2.259 1.295 2.259.846 0 1.171-1.659 2.368-1.66s1.522 1.66 2.367 1.66c.609 0 1.2-1.734 1.3-2.259h1.02c-.74 2.68-1.63 3.277-2.341 3.277-1.199-.003-1.674-1.63-2.346-1.63zm-4.964-.115zm-6.027 0zm-5.932 0z" data-name="합치기 59" transform="translate(4000 -524)" style="fill:#0099dc;stroke:transparent;stroke-miterlimit:10"/>
    </g>
</svg>
