<svg xmlns="http://www.w3.org/2000/svg" width="27" height="21" viewBox="0 0 27 21">
    <defs>
        <style>
            .prefix__cls-2{fill:#fff}
        </style>
    </defs>
    <g id="prefix__그룹_267" data-name="그룹 267" transform="translate(221.324 592.667)">
        <g id="prefix__그룹_263" data-name="그룹 263" transform="translate(-221.324 -592.667)">
            <path id="prefix__합치기_53" d="M3.554 18.228v-.006c0-.018-.008-.035-.011-.054L1.29 4.655a1.089 1.089 0 0 1-.165.013A1.146 1.146 0 0 1 0 3.5a1.146 1.146 0 0 1 1.125-1.166A1.146 1.146 0 0 1 2.25 3.5a1.2 1.2 0 0 1-.049.342L7.2 7.4a1.724 1.724 0 0 0 2.443-.458l3.17-4.7a1 1 0 0 1 .069-.108 1.177 1.177 0 0 1-.509-.976 1.126 1.126 0 1 1 2.25 0 1.183 1.183 0 0 1-.37.864.969.969 0 0 1 .165.219l3.132 4.627a1.723 1.723 0 0 0 2.435.461l4.84-3.414a1.2 1.2 0 0 1-.077-.425A1.126 1.126 0 1 1 27 3.5a1.147 1.147 0 0 1-1.125 1.167h-.019l-2.222 13.326v.034c.014 1.582-4.44 2.919-10 2.971h-.34c-5.394.002-9.726-1.22-9.74-2.77z" data-name="합치기 53" style="fill:#05c4c4"/>
            <g id="prefix__그룹_262" data-name="그룹 262" transform="translate(6.12 16.185)">
                <ellipse id="prefix__타원_268" cx="7.876" cy="1.682" class="prefix__cls-2" data-name="타원 268" rx="7.876" ry="1.682" transform="rotate(-.522 15.746 13.243)"/>
            </g>
        </g>
        <g id="prefix__그룹_264" data-name="그룹 264" transform="translate(-209.889 -584.122)">
            <path id="prefix__패스_2168" d="M-67.272-477.114h-1.363v-1.609a.527.527 0 0 0-.525-.525h-.06a.527.527 0 0 0-.525.525v2.194a.527.527 0 0 0 .525.525h1.949a.527.527 0 0 0 .525-.525v-.06a.527.527 0 0 0-.526-.525z" class="prefix__cls-2" data-name="패스 2168" transform="translate(71.812 480.696)"/>
            <path id="prefix__사각형_1576" d="M.555 0a.555.555 0 0 1 .555.555v2.131a.555.555 0 0 1-.555.555A.555.555 0 0 1 0 2.686V.555A.555.555 0 0 1 .555 0z" class="prefix__cls-2" data-name="사각형 1576" transform="translate(0 1.448)"/>
            <circle id="prefix__타원_269" cx=".555" cy=".555" r=".555" class="prefix__cls-2" data-name="타원 269"/>
            <circle id="prefix__타원_270" cx=".555" cy=".555" r=".555" class="prefix__cls-2" data-name="타원 270" transform="translate(2.066)"/>
        </g>
    </g>
</svg>
