<?xml version="1.0" encoding="utf-8"?>
<!-- Generator: Adobe Illustrator 16.0.0, SVG Export Plug-In . SVG Version: 6.00 Build 0)  -->
<!DOCTYPE svg PUBLIC "-//W3C//DTD SVG 1.1//EN" "http://www.w3.org/Graphics/SVG/1.1/DTD/svg11.dtd">
<svg version="1.1" id="아이콘" xmlns="http://www.w3.org/2000/svg" xmlns:xlink="http://www.w3.org/1999/xlink" x="0px" y="0px"
	 width="167.653px" height="284.143px" viewBox="0 0 167.653 284.143" enable-background="new 0 0 167.653 284.143"
	 xml:space="preserve">
<g>
	<path fill="#077BC1" d="M46.604,12.379h-6.495v-1.011c0-0.821-0.666-1.488-1.487-1.488c-0.822,0-1.488,0.667-1.488,1.488v1.011
		h-6.566v-1.011c0-0.821-0.666-1.488-1.488-1.488c-0.82,0-1.486,0.667-1.486,1.488v1.011h-6.566v-1.011
		c0-0.821-0.667-1.488-1.488-1.488c-0.822,0-1.488,0.667-1.488,1.488v1.011h-6.568v-1.011c0-0.821-0.666-1.488-1.487-1.488
		c-0.822,0-1.488,0.667-1.488,1.488v1.011H1.705c-0.8,0-1.45,0.65-1.45,1.45v5.142c0,0.8,0.65,1.45,1.45,1.45h0.311
		c-0.085,0.272-0.134,0.562-0.134,0.863v27.026c0,1.57,1.277,2.847,2.848,2.847h38.852c1.569,0,2.848-1.276,2.848-2.847V21.284
		c0-0.302-0.049-0.591-0.136-0.863h0.312c0.799,0,1.448-0.65,1.448-1.45v-5.142C48.053,13.029,47.403,12.379,46.604,12.379z
		 M2.237,14.362h6.269v0.547c0,0.821,0.666,1.488,1.488,1.488c0.821,0,1.487-0.667,1.487-1.488v-0.547h6.568v0.547
		c0,0.821,0.666,1.488,1.488,1.488c0.821,0,1.488-0.667,1.488-1.488v-0.547h6.566v0.547c0,0.821,0.666,1.488,1.486,1.488
		c0.822,0,1.488-0.667,1.488-1.488v-0.547h6.566v0.547c0,0.821,0.666,1.488,1.488,1.488c0.821,0,1.487-0.667,1.487-1.488v-0.547
		h5.96v4.075h-2.488H4.729H2.237V14.362z M44.442,21.284v27.026c0,0.476-0.385,0.863-0.861,0.863H4.729
		c-0.477,0-0.864-0.388-0.864-0.863V21.284c0-0.476,0.388-0.863,0.864-0.863h38.852C44.058,20.421,44.442,20.809,44.442,21.284z"/>
	<path fill="#077BC1" d="M7.806,47.232h32.695c1.059,0,1.92-0.861,1.92-1.92V24.284c0-1.059-0.861-1.919-1.92-1.919H7.806
		c-1.059,0-1.92,0.86-1.92,1.919v21.028C5.886,46.371,6.747,47.232,7.806,47.232z M7.87,24.349h32.566v20.899H7.87V24.349z"/>
	<path fill="#077BC1" d="M15.69,29.45h-3.316c-0.212,0-0.386,0.175-0.386,0.386v3.317c0,0.212,0.174,0.385,0.386,0.385h3.316
		c0.213,0,0.386-0.173,0.386-0.385v-3.317C16.076,29.625,15.903,29.45,15.69,29.45z"/>
	<path fill="#077BC1" d="M22.438,29.45h-3.316c-0.213,0-0.385,0.175-0.385,0.386v3.317c0,0.212,0.172,0.385,0.385,0.385h3.316
		c0.213,0,0.386-0.173,0.386-0.385v-3.317C22.824,29.625,22.651,29.45,22.438,29.45z"/>
	<path fill="#077BC1" d="M29.188,29.45H25.87c-0.211,0-0.385,0.175-0.385,0.386v3.317c0,0.212,0.174,0.385,0.385,0.385h3.317
		c0.212,0,0.386-0.173,0.386-0.385v-3.317C29.573,29.625,29.399,29.45,29.188,29.45z"/>
	<path fill="#077BC1" d="M35.937,29.45h-3.317c-0.212,0-0.386,0.175-0.386,0.386v3.317c0,0.212,0.174,0.385,0.386,0.385h3.317
		c0.211,0,0.384-0.173,0.384-0.385v-3.317C36.32,29.625,36.147,29.45,35.937,29.45z"/>
	<path fill="#077BC1" d="M15.69,36.059h-3.316c-0.212,0-0.386,0.173-0.386,0.385v3.317c0,0.212,0.174,0.386,0.386,0.386h3.316
		c0.213,0,0.386-0.174,0.386-0.386v-3.317C16.076,36.231,15.903,36.059,15.69,36.059z"/>
	<path fill="#077BC1" d="M22.438,36.059h-3.316c-0.213,0-0.385,0.173-0.385,0.385v3.317c0,0.212,0.172,0.386,0.385,0.386h3.316
		c0.213,0,0.386-0.174,0.386-0.386v-3.317C22.824,36.231,22.651,36.059,22.438,36.059z"/>
	<path fill="#077BC1" d="M29.188,36.059H25.87c-0.211,0-0.385,0.173-0.385,0.385v3.317c0,0.212,0.174,0.386,0.385,0.386h3.317
		c0.212,0,0.386-0.174,0.386-0.386v-3.317C29.573,36.231,29.399,36.059,29.188,36.059z"/>
	<path fill="#077BC1" d="M35.937,36.059h-3.317c-0.212,0-0.386,0.173-0.386,0.385v3.317c0,0.212,0.174,0.386,0.386,0.386h3.317
		c0.211,0,0.384-0.174,0.384-0.386v-3.317C36.32,36.231,36.147,36.059,35.937,36.059z"/>
</g>
<g>
	<g>
		<g>
			<g>
				<g>
					<path fill="#077BC1" stroke="#077BC1" stroke-width="0.4" stroke-miterlimit="10" d="M41.926,232.481
						c-0.916,0-1.834-0.348-2.53-1.044l-13.682-13.692c-1.396-1.396-1.396-3.666,0-5.062l1.066-1.063
						c0.275-0.277,0.726-0.277,1.004,0.001c0.279,0.277,0.277,0.728-0.002,1.006l-1.063,1.064c-0.841,0.84-0.841,2.207,0,3.048
						l13.682,13.691c0.841,0.84,2.211,0.84,3.053,0l1.063-1.063c0.84-0.84,0.84-2.206,0.001-3.049l-9.403-9.408
						c-0.276-0.277-0.276-0.729,0-1.005c0.279-0.277,0.729-0.277,1.008,0l9.402,9.407c1.393,1.398,1.392,3.668-0.003,5.061
						l-1.063,1.063C43.763,232.134,42.844,232.481,41.926,232.481z"/>
				</g>
			</g>
		</g>
	</g>
	<g>
		<g>
			<g>
				<g>
					<path fill="#077BC1" stroke="#077BC1" stroke-width="0.4" stroke-miterlimit="10" d="M21.37,250.615
						c-0.834,0-1.658-0.296-2.303-0.895c-0.675-0.624-1.05-1.484-1.074-2.389c-1.064,0.216-2.179-0.063-2.991-0.815
						c-0.683-0.636-1.058-1.522-1.069-2.448c-0.999,0.129-2.012-0.17-2.752-0.855c-0.873-0.81-1.216-2.001-1.006-3.137
						c-0.939,0.086-1.884-0.215-2.601-0.88c-1.099-1.021-1.391-2.648-0.72-4.052c0.17-0.354,0.596-0.505,0.947-0.337
						c0.355,0.169,0.504,0.596,0.336,0.948c-0.4,0.839-0.24,1.801,0.404,2.397c0.682,0.634,1.734,0.686,2.558,0.127
						c0.294-0.197,0.687-0.152,0.924,0.11c0.239,0.261,0.25,0.657,0.024,0.931c-0.723,0.878-0.677,2.128,0.103,2.848
						c0.604,0.564,1.542,0.67,2.333,0.263c0.26-0.134,0.572-0.096,0.792,0.096c0.22,0.19,0.301,0.496,0.205,0.771
						c-0.278,0.788-0.085,1.641,0.488,2.174c0.672,0.621,1.712,0.678,2.532,0.139c0.258-0.168,0.594-0.152,0.836,0.039
						c0.238,0.194,0.328,0.518,0.22,0.806c-0.3,0.803-0.113,1.676,0.477,2.221c0.82,0.761,2.146,0.672,2.957-0.201
						c0.266-0.288,0.718-0.305,1.003-0.038c0.289,0.269,0.305,0.719,0.039,1.007C23.31,250.221,22.335,250.615,21.37,250.615z"/>
				</g>
			</g>
			<g>
				<g>
					<path fill="#077BC1" stroke="#077BC1" stroke-width="0.4" stroke-miterlimit="10" d="M38.974,234.026
						c-0.143,0-0.286-0.041-0.408-0.129c-0.323-0.226-0.4-0.668-0.174-0.991c0.602-0.858,0.502-2.021-0.238-2.766L26.13,218.094
						c-0.275-0.278-0.275-0.729,0.002-1.006c0.277-0.276,0.73-0.276,1.006,0.003l12.021,12.047c1.229,1.229,1.396,3.161,0.396,4.586
						C39.417,233.921,39.196,234.026,38.974,234.026z"/>
				</g>
			</g>
		</g>
	</g>
	<g>
		<g>
			<g>
				<g>
					<path fill="#077BC1" stroke="#077BC1" stroke-width="0.4" stroke-miterlimit="10" d="M3.905,234.674
						c-0.803,0-1.577-0.266-2.213-0.771l-1.159-0.893c-0.313-0.24-0.37-0.687-0.132-0.997c0.24-0.312,0.688-0.37,0.999-0.131
						l1.17,0.901c0.456,0.361,1.019,0.522,1.595,0.454c0.573-0.066,1.086-0.352,1.442-0.801l12.021-15.167
						c0.737-0.934,0.58-2.292-0.351-3.03l-1.166-0.896c-0.454-0.362-1.018-0.524-1.592-0.456c-0.576,0.068-1.088,0.352-1.445,0.802
						l-5.667,7.15c-0.243,0.308-0.69,0.36-0.999,0.116c-0.307-0.243-0.358-0.69-0.115-0.998l5.669-7.151
						c0.591-0.748,1.44-1.22,2.395-1.332c0.951-0.109,1.888,0.156,2.634,0.748l1.163,0.897c1.552,1.231,1.814,3.487,0.59,5.033
						L6.723,233.32c-0.592,0.747-1.443,1.22-2.395,1.331C4.187,234.668,4.044,234.674,3.905,234.674z"/>
				</g>
			</g>
		</g>
	</g>
	<g>
		<g>
			<g>
				<g>
					<path fill="#077BC1" stroke="#077BC1" stroke-width="0.4" stroke-miterlimit="10" d="M26.53,250.613
						c-0.864,0-1.697-0.31-2.366-0.881l-2.286-1.955c-0.059-0.053-0.104-0.102-0.147-0.149c-0.11-0.063-0.226-0.135-0.346-0.229
						L7.394,236.322c-0.746-0.588-1.221-1.434-1.332-2.387c-0.114-0.955,0.152-1.891,0.743-2.64l9.583-12.111
						c0.243-0.309,0.693-0.36,1.001-0.117c0.308,0.245,0.358,0.692,0.114,0.999l-9.584,12.111c-0.354,0.451-0.513,1.015-0.445,1.592
						c0.067,0.573,0.353,1.083,0.803,1.437l13.993,11.078c0.07,0.056,0.157,0.104,0.257,0.161c0.057,0.031,0.107,0.068,0.151,0.115
						c0.034,0.032,0.064,0.064,0.097,0.101c0.014,0.016,0.025,0.031,0.042,0.046l2.274,1.942c0.438,0.379,0.99,0.569,1.56,0.539
						c0.554-0.03,1.049-0.27,1.397-0.677c0.523-0.61,0.612-1.497,0.221-2.261c-0.143-0.275-0.089-0.607,0.127-0.825
						c0.218-0.219,0.551-0.273,0.826-0.135c0.875,0.441,1.899,0.264,2.496-0.431c0.508-0.594,0.602-1.462,0.236-2.216
						c-0.127-0.262-0.08-0.574,0.115-0.79c0.197-0.214,0.504-0.289,0.776-0.185c0.829,0.313,1.75,0.104,2.288-0.526
						c0.689-0.803,0.588-2.053-0.229-2.843c-0.255-0.245-0.29-0.643-0.084-0.927c0.207-0.287,0.594-0.379,0.906-0.215
						c0.884,0.462,1.925,0.291,2.527-0.418c0.729-0.851,0.586-2.173-0.316-2.945l-2.285-1.954c-0.066-0.058-0.224-0.208-0.406-0.385
						c-0.232-0.225-0.583-0.563-0.717-0.667l-9.477-7.499c-0.309-0.244-0.359-0.69-0.115-0.999c0.243-0.309,0.689-0.36,0.999-0.115
						l9.475,7.497c0.173,0.137,0.462,0.413,0.821,0.76c0.156,0.149,0.289,0.279,0.346,0.329l2.283,1.953
						c1.499,1.282,1.711,3.505,0.475,4.95c-0.634,0.743-1.539,1.146-2.482,1.173c0.339,1.104,0.134,2.325-0.641,3.23
						c-0.656,0.769-1.63,1.178-2.634,1.165c0.093,0.921-0.177,1.847-0.781,2.553c-0.722,0.841-1.792,1.247-2.876,1.157
						c0.076,0.898-0.197,1.798-0.797,2.494c-0.6,0.702-1.451,1.118-2.398,1.169C26.661,250.613,26.597,250.613,26.53,250.613z"/>
				</g>
			</g>
		</g>
	</g>
	<g>
		<g>
			<g>
				<g>
					<path fill="#077BC1" stroke="#077BC1" stroke-width="0.4" stroke-miterlimit="10" d="M18.063,232.449
						c-0.365,0-0.657-0.124-0.865-0.255c-1.408-0.899-1.604-4.012-1.68-6.859c-0.008-0.334-0.016-0.622-0.026-0.777
						c-0.114-1.457,0.188-3.679,1.419-5.144c1.416-1.688,4.65-2.878,6.961-3.053c1.047-0.082,2.269,0.375,2.743,0.574
						c0.362,0.152,0.533,0.567,0.382,0.932c-0.153,0.362-0.57,0.531-0.932,0.381c-0.791-0.333-1.57-0.506-2.087-0.468
						c-1.98,0.15-4.854,1.21-5.978,2.549c-0.888,1.057-1.188,2.875-1.092,4.119c0.016,0.19,0.022,0.481,0.033,0.849
						c0.088,3.404,0.431,5.322,1.021,5.696c0.037,0.023,0.105,0.067,0.312-0.022c0.875-0.38,1.094-2.039,1.27-3.371
						c0.068-0.517,0.133-1.004,0.232-1.406c0.659-2.67,1.952-3.959,4.61-4.591c0.003-0.002,0.01-0.003,0.012-0.004
						c0.425-0.095,4.061-0.813,5.701,1.969c0.2,0.338,0.09,0.773-0.249,0.975c-0.338,0.198-0.775,0.086-0.974-0.252
						c-1.153-1.952-4.039-1.332-4.166-1.305c-2.128,0.511-3.025,1.406-3.554,3.551c-0.08,0.326-0.139,0.774-0.202,1.248
						c-0.224,1.69-0.501,3.792-2.116,4.492C18.552,232.399,18.293,232.449,18.063,232.449z"/>
				</g>
			</g>
		</g>
	</g>
</g>
<g>
	<g>
		<path fill="#077BC1" d="M33.953,139.091c-0.523,0-0.952-0.426-0.952-0.953v-19.009H14.563v19.009c0,0.527-0.427,0.953-0.951,0.953
			s-0.95-0.426-0.95-0.953v-19.96c0-0.525,0.426-0.948,0.95-0.948h20.342c0.525,0,0.951,0.423,0.951,0.948v19.96
			C34.904,138.665,34.479,139.091,33.953,139.091z"/>
	</g>
	<g>
		<g>
			<path fill="#077BC1" d="M41.645,145.553H5.921c-2.234,0-4.052-1.818-4.052-4.051v-26.686c0-2.234,1.817-4.052,4.052-4.052h35.724
				c2.233,0,4.052,1.817,4.052,4.052v26.686C45.696,143.734,43.878,145.553,41.645,145.553z M5.921,112.666
				c-1.186,0-2.151,0.965-2.151,2.15v26.686c0,1.186,0.966,2.151,2.151,2.151h35.724c1.185,0,2.149-0.966,2.149-2.151v-26.686
				c0-1.186-0.965-2.15-2.149-2.15H5.921z"/>
		</g>
		<g>
			<rect x="22.83" y="144.604" fill="#077BC1" width="1.903" height="5.916"/>
		</g>
		<g>
			<path fill="#077BC1" d="M31.854,151.47H15.711c-0.524,0-0.95-0.425-0.95-0.95c0-0.526,0.426-0.951,0.95-0.951h16.143
				c0.524,0,0.95,0.425,0.95,0.951C32.804,151.045,32.378,151.47,31.854,151.47z"/>
		</g>
		<g>
			<path fill="#077BC1" d="M44.745,139.044H2.819c-0.524,0-0.95-0.428-0.95-0.952s0.426-0.951,0.95-0.951h41.926
				c0.525,0,0.951,0.427,0.951,0.951S45.271,139.044,44.745,139.044z"/>
		</g>
	</g>
	<g>
		<path fill="#077BC1" d="M29.589,124.146H17.974c-0.522,0-0.949-0.426-0.949-0.951c0-0.524,0.427-0.951,0.949-0.951h11.615
			c0.525,0,0.951,0.427,0.951,0.951C30.54,123.721,30.114,124.146,29.589,124.146z"/>
	</g>
	<g>
		<path fill="#077BC1" d="M29.589,128.479H17.974c-0.522,0-0.949-0.426-0.949-0.95c0-0.525,0.427-0.951,0.949-0.951h11.615
			c0.525,0,0.951,0.426,0.951,0.951C30.54,128.054,30.114,128.479,29.589,128.479z"/>
	</g>
	<g>
		<g>
			<path fill="#077BC1" d="M33.313,132.395c-0.522,0-0.949-0.425-0.949-0.951l-0.001-3.518c0-0.524,0.426-0.951,0.95-0.951
				s0.951,0.427,0.951,0.951v3.518C34.265,131.97,33.84,132.395,33.313,132.395z"/>
		</g>
		<g>
			<path fill="#077BC1" d="M36.834,128.877L36.834,128.877h-3.521c-0.524,0-0.95-0.427-0.95-0.951s0.426-0.951,0.95-0.951l0,0
				l3.521,0.002c0.525,0,0.951,0.426,0.951,0.951C37.785,128.45,37.359,128.877,36.834,128.877z"/>
		</g>
		<g>
			<path fill="#077BC1" d="M38.348,133.909c-0.243,0-0.486-0.093-0.672-0.277l-5.034-5.034c-0.37-0.371-0.37-0.973,0-1.344
				c0.371-0.372,0.973-0.372,1.346,0l5.032,5.033c0.371,0.373,0.371,0.972,0,1.345C38.833,133.816,38.591,133.909,38.348,133.909z"
				/>
		</g>
	</g>
	<g>
		<circle fill="#077BC1" cx="23.783" cy="141.258" r="1.309"/>
	</g>
</g>
<g>
	<path fill="#FFFFFF" d="M134.402,12.379h-6.495v-1.011c0-0.821-0.666-1.488-1.487-1.488c-0.822,0-1.488,0.667-1.488,1.488v1.011
		h-6.566v-1.011c0-0.821-0.666-1.488-1.488-1.488c-0.82,0-1.486,0.667-1.486,1.488v1.011h-6.566v-1.011
		c0-0.821-0.667-1.488-1.488-1.488c-0.822,0-1.488,0.667-1.488,1.488v1.011h-6.568v-1.011c0-0.821-0.666-1.488-1.487-1.488
		c-0.822,0-1.488,0.667-1.488,1.488v1.011h-6.801c-0.8,0-1.45,0.65-1.45,1.45v5.142c0,0.8,0.65,1.45,1.45,1.45h0.311
		c-0.085,0.272-0.134,0.562-0.134,0.863v27.026c0,1.57,1.277,2.847,2.848,2.847h38.852c1.569,0,2.848-1.276,2.848-2.847V21.284
		c0-0.302-0.049-0.591-0.136-0.863h0.312c0.799,0,1.448-0.65,1.448-1.45v-5.142C135.851,13.029,135.201,12.379,134.402,12.379z
		 M90.035,14.362h6.269v0.547c0,0.821,0.666,1.488,1.488,1.488c0.821,0,1.487-0.667,1.487-1.488v-0.547h6.568v0.547
		c0,0.821,0.666,1.488,1.488,1.488c0.821,0,1.488-0.667,1.488-1.488v-0.547h6.566v0.547c0,0.821,0.666,1.488,1.486,1.488
		c0.822,0,1.488-0.667,1.488-1.488v-0.547h6.566v0.547c0,0.821,0.666,1.488,1.488,1.488c0.821,0,1.487-0.667,1.487-1.488v-0.547
		h5.96v4.075h-2.488H92.527h-2.492V14.362z M132.24,21.284v27.026c0,0.476-0.385,0.863-0.861,0.863H92.527
		c-0.477,0-0.864-0.388-0.864-0.863V21.284c0-0.476,0.388-0.863,0.864-0.863h38.852C131.855,20.421,132.24,20.809,132.24,21.284z"/>
	<path fill="#FFFFFF" d="M95.604,47.232h32.695c1.059,0,1.92-0.861,1.92-1.92V24.284c0-1.059-0.861-1.919-1.92-1.919H95.604
		c-1.059,0-1.92,0.86-1.92,1.919v21.028C93.684,46.371,94.545,47.232,95.604,47.232z M95.668,24.349h32.566v20.899H95.668V24.349z"
		/>
	<path fill="#FFFFFF" d="M103.488,29.45h-3.316c-0.212,0-0.386,0.175-0.386,0.386v3.317c0,0.212,0.174,0.385,0.386,0.385h3.316
		c0.213,0,0.386-0.173,0.386-0.385v-3.317C103.874,29.625,103.701,29.45,103.488,29.45z"/>
	<path fill="#FFFFFF" d="M110.236,29.45h-3.316c-0.213,0-0.385,0.175-0.385,0.386v3.317c0,0.212,0.172,0.385,0.385,0.385h3.316
		c0.213,0,0.386-0.173,0.386-0.385v-3.317C110.622,29.625,110.449,29.45,110.236,29.45z"/>
	<path fill="#FFFFFF" d="M116.985,29.45h-3.317c-0.211,0-0.385,0.175-0.385,0.386v3.317c0,0.212,0.174,0.385,0.385,0.385h3.317
		c0.212,0,0.386-0.173,0.386-0.385v-3.317C117.371,29.625,117.197,29.45,116.985,29.45z"/>
	<path fill="#FFFFFF" d="M123.734,29.45h-3.317c-0.212,0-0.386,0.175-0.386,0.386v3.317c0,0.212,0.174,0.385,0.386,0.385h3.317
		c0.211,0,0.384-0.173,0.384-0.385v-3.317C124.118,29.625,123.945,29.45,123.734,29.45z"/>
	<path fill="#FFFFFF" d="M103.488,36.059h-3.316c-0.212,0-0.386,0.173-0.386,0.385v3.317c0,0.212,0.174,0.386,0.386,0.386h3.316
		c0.213,0,0.386-0.174,0.386-0.386v-3.317C103.874,36.231,103.701,36.059,103.488,36.059z"/>
	<path fill="#FFFFFF" d="M110.236,36.059h-3.316c-0.213,0-0.385,0.173-0.385,0.385v3.317c0,0.212,0.172,0.386,0.385,0.386h3.316
		c0.213,0,0.386-0.174,0.386-0.386v-3.317C110.622,36.231,110.449,36.059,110.236,36.059z"/>
	<path fill="#FFFFFF" d="M116.985,36.059h-3.317c-0.211,0-0.385,0.173-0.385,0.385v3.317c0,0.212,0.174,0.386,0.385,0.386h3.317
		c0.212,0,0.386-0.174,0.386-0.386v-3.317C117.371,36.231,117.197,36.059,116.985,36.059z"/>
	<path fill="#FFFFFF" d="M123.734,36.059h-3.317c-0.212,0-0.386,0.173-0.386,0.385v3.317c0,0.212,0.174,0.386,0.386,0.386h3.317
		c0.211,0,0.384-0.174,0.384-0.386v-3.317C124.118,36.231,123.945,36.059,123.734,36.059z"/>
</g>
<g>
	<g>
		<g>
			<g>
				<g>
					<path fill="#FFFFFF" stroke="#FFFFFF" stroke-width="0.4" stroke-miterlimit="10" d="M129.724,232.481
						c-0.916,0-1.834-0.348-2.53-1.044l-13.682-13.692c-1.396-1.396-1.396-3.666,0-5.062l1.066-1.063
						c0.275-0.277,0.726-0.277,1.004,0.001c0.279,0.277,0.277,0.728-0.002,1.006l-1.063,1.064c-0.841,0.84-0.841,2.207,0,3.048
						l13.682,13.691c0.841,0.84,2.211,0.84,3.053,0l1.063-1.063c0.84-0.84,0.84-2.206,0.001-3.049l-9.403-9.408
						c-0.276-0.277-0.276-0.729,0-1.005c0.279-0.277,0.729-0.277,1.008,0l9.402,9.407c1.393,1.398,1.392,3.668-0.003,5.061
						l-1.063,1.063C131.561,232.134,130.642,232.481,129.724,232.481z"/>
				</g>
			</g>
		</g>
	</g>
	<g>
		<g>
			<g>
				<g>
					<path fill="#FFFFFF" stroke="#FFFFFF" stroke-width="0.4" stroke-miterlimit="10" d="M109.168,250.615
						c-0.834,0-1.658-0.296-2.303-0.895c-0.675-0.624-1.05-1.484-1.074-2.389c-1.064,0.216-2.179-0.063-2.991-0.815
						c-0.683-0.636-1.058-1.522-1.069-2.448c-0.999,0.129-2.012-0.17-2.752-0.855c-0.873-0.81-1.216-2.001-1.006-3.137
						c-0.939,0.086-1.884-0.215-2.601-0.88c-1.099-1.021-1.391-2.648-0.72-4.052c0.17-0.354,0.596-0.505,0.947-0.337
						c0.355,0.169,0.504,0.596,0.336,0.948c-0.4,0.839-0.24,1.801,0.404,2.397c0.682,0.634,1.734,0.686,2.558,0.127
						c0.294-0.197,0.687-0.152,0.924,0.11c0.239,0.261,0.25,0.657,0.024,0.931c-0.723,0.878-0.677,2.128,0.103,2.848
						c0.604,0.564,1.542,0.67,2.333,0.263c0.26-0.134,0.572-0.096,0.792,0.096c0.22,0.19,0.301,0.496,0.205,0.771
						c-0.278,0.788-0.085,1.641,0.488,2.174c0.672,0.621,1.712,0.678,2.532,0.139c0.258-0.168,0.594-0.152,0.836,0.039
						c0.238,0.194,0.328,0.518,0.22,0.806c-0.3,0.803-0.113,1.676,0.477,2.221c0.82,0.761,2.146,0.672,2.957-0.201
						c0.266-0.288,0.718-0.305,1.003-0.038c0.289,0.269,0.305,0.719,0.039,1.007C111.107,250.221,110.133,250.615,109.168,250.615z"
						/>
				</g>
			</g>
			<g>
				<g>
					<path fill="#FFFFFF" stroke="#FFFFFF" stroke-width="0.4" stroke-miterlimit="10" d="M126.771,234.026
						c-0.143,0-0.286-0.041-0.408-0.129c-0.323-0.226-0.4-0.668-0.174-0.991c0.602-0.858,0.502-2.021-0.238-2.766l-12.023-12.047
						c-0.275-0.278-0.275-0.729,0.002-1.006c0.277-0.276,0.73-0.276,1.006,0.003l12.021,12.047c1.229,1.229,1.396,3.161,0.396,4.586
						C127.215,233.921,126.994,234.026,126.771,234.026z"/>
				</g>
			</g>
		</g>
	</g>
	<g>
		<g>
			<g>
				<g>
					<path fill="#FFFFFF" stroke="#FFFFFF" stroke-width="0.4" stroke-miterlimit="10" d="M91.703,234.674
						c-0.803,0-1.577-0.266-2.213-0.771l-1.159-0.893c-0.313-0.24-0.37-0.687-0.132-0.997c0.24-0.312,0.688-0.37,0.999-0.131
						l1.17,0.901c0.456,0.361,1.019,0.522,1.595,0.454c0.573-0.066,1.086-0.352,1.442-0.801l12.021-15.167
						c0.737-0.934,0.58-2.292-0.351-3.03l-1.166-0.896c-0.454-0.362-1.018-0.524-1.592-0.456c-0.576,0.068-1.088,0.352-1.445,0.802
						l-5.667,7.15c-0.243,0.308-0.69,0.36-0.999,0.116c-0.307-0.243-0.358-0.69-0.115-0.998l5.669-7.151
						c0.591-0.748,1.44-1.22,2.395-1.332c0.951-0.109,1.888,0.156,2.634,0.748l1.163,0.897c1.552,1.231,1.814,3.487,0.59,5.033
						L94.521,233.32c-0.592,0.747-1.443,1.22-2.395,1.331C91.984,234.668,91.842,234.674,91.703,234.674z"/>
				</g>
			</g>
		</g>
	</g>
	<g>
		<g>
			<g>
				<g>
					<path fill="#FFFFFF" stroke="#FFFFFF" stroke-width="0.4" stroke-miterlimit="10" d="M114.328,250.613
						c-0.864,0-1.697-0.31-2.366-0.881l-2.286-1.955c-0.059-0.053-0.104-0.102-0.147-0.149c-0.11-0.063-0.226-0.135-0.346-0.229
						l-13.991-11.076c-0.746-0.588-1.221-1.434-1.332-2.387c-0.114-0.955,0.152-1.891,0.743-2.64l9.583-12.111
						c0.243-0.309,0.693-0.36,1.001-0.117c0.308,0.245,0.358,0.692,0.114,0.999l-9.584,12.111c-0.354,0.451-0.513,1.015-0.445,1.592
						c0.067,0.573,0.353,1.083,0.803,1.437l13.993,11.078c0.07,0.056,0.157,0.104,0.257,0.161c0.057,0.031,0.107,0.068,0.151,0.115
						c0.034,0.032,0.064,0.064,0.097,0.101c0.014,0.016,0.025,0.031,0.042,0.046l2.274,1.942c0.438,0.379,0.99,0.569,1.56,0.539
						c0.554-0.03,1.049-0.27,1.397-0.677c0.523-0.61,0.612-1.497,0.221-2.261c-0.143-0.275-0.089-0.607,0.127-0.825
						c0.218-0.219,0.551-0.273,0.826-0.135c0.875,0.441,1.899,0.264,2.496-0.431c0.508-0.594,0.602-1.462,0.236-2.216
						c-0.127-0.262-0.08-0.574,0.115-0.79c0.197-0.214,0.504-0.289,0.776-0.185c0.829,0.313,1.75,0.104,2.288-0.526
						c0.689-0.803,0.588-2.053-0.229-2.843c-0.255-0.245-0.29-0.643-0.084-0.927c0.207-0.287,0.594-0.379,0.906-0.215
						c0.884,0.462,1.925,0.291,2.527-0.418c0.729-0.851,0.586-2.173-0.316-2.945l-2.285-1.954c-0.066-0.058-0.224-0.208-0.406-0.385
						c-0.232-0.225-0.583-0.563-0.717-0.667l-9.477-7.499c-0.309-0.244-0.359-0.69-0.115-0.999c0.243-0.309,0.689-0.36,0.999-0.115
						l9.475,7.497c0.173,0.137,0.462,0.413,0.821,0.76c0.156,0.149,0.289,0.279,0.346,0.329l2.283,1.953
						c1.499,1.282,1.711,3.505,0.475,4.95c-0.634,0.743-1.539,1.146-2.482,1.173c0.339,1.104,0.134,2.325-0.641,3.23
						c-0.656,0.769-1.63,1.178-2.634,1.165c0.093,0.921-0.177,1.847-0.781,2.553c-0.722,0.841-1.792,1.247-2.876,1.157
						c0.076,0.898-0.197,1.798-0.797,2.494c-0.6,0.702-1.451,1.118-2.398,1.169C114.459,250.613,114.395,250.613,114.328,250.613z"
						/>
				</g>
			</g>
		</g>
	</g>
	<g>
		<g>
			<g>
				<g>
					<path fill="#FFFFFF" stroke="#FFFFFF" stroke-width="0.4" stroke-miterlimit="10" d="M105.861,232.449
						c-0.365,0-0.657-0.124-0.865-0.255c-1.408-0.899-1.604-4.012-1.68-6.859c-0.008-0.334-0.016-0.622-0.026-0.777
						c-0.114-1.457,0.188-3.679,1.419-5.144c1.416-1.688,4.65-2.878,6.961-3.053c1.047-0.082,2.269,0.375,2.743,0.574
						c0.362,0.152,0.533,0.567,0.382,0.932c-0.153,0.362-0.57,0.531-0.932,0.381c-0.791-0.333-1.57-0.506-2.087-0.468
						c-1.98,0.15-4.854,1.21-5.978,2.549c-0.888,1.057-1.188,2.875-1.092,4.119c0.016,0.19,0.022,0.481,0.033,0.849
						c0.088,3.404,0.431,5.322,1.021,5.696c0.037,0.023,0.105,0.067,0.312-0.022c0.875-0.38,1.094-2.039,1.27-3.371
						c0.068-0.517,0.133-1.004,0.232-1.406c0.659-2.67,1.952-3.959,4.61-4.591c0.003-0.002,0.01-0.003,0.012-0.004
						c0.425-0.095,4.061-0.813,5.701,1.969c0.2,0.338,0.09,0.773-0.249,0.975c-0.338,0.198-0.775,0.086-0.974-0.252
						c-1.153-1.952-4.039-1.332-4.166-1.305c-2.128,0.511-3.025,1.406-3.554,3.551c-0.08,0.326-0.139,0.774-0.202,1.248
						c-0.224,1.69-0.501,3.792-2.116,4.492C106.35,232.399,106.091,232.449,105.861,232.449z"/>
				</g>
			</g>
		</g>
	</g>
</g>
<g>
	<g>
		<path fill="#FFFFFF" d="M121.751,139.091c-0.523,0-0.952-0.426-0.952-0.953v-19.009H102.36v19.009
			c0,0.527-0.427,0.953-0.951,0.953s-0.95-0.426-0.95-0.953v-19.96c0-0.525,0.426-0.948,0.95-0.948h20.342
			c0.525,0,0.951,0.423,0.951,0.948v19.96C122.702,138.665,122.276,139.091,121.751,139.091z"/>
	</g>
	<g>
		<g>
			<path fill="#FFFFFF" d="M129.442,145.553H93.719c-2.234,0-4.052-1.818-4.052-4.051v-26.686c0-2.234,1.817-4.052,4.052-4.052
				h35.724c2.233,0,4.052,1.817,4.052,4.052v26.686C133.494,143.734,131.676,145.553,129.442,145.553z M93.719,112.666
				c-1.186,0-2.151,0.965-2.151,2.15v26.686c0,1.186,0.966,2.151,2.151,2.151h35.724c1.185,0,2.149-0.966,2.149-2.151v-26.686
				c0-1.186-0.965-2.15-2.149-2.15H93.719z"/>
		</g>
		<g>
			<rect x="110.628" y="144.604" fill="#FFFFFF" width="1.903" height="5.916"/>
		</g>
		<g>
			<path fill="#FFFFFF" d="M119.651,151.47h-16.143c-0.524,0-0.95-0.425-0.95-0.95c0-0.526,0.426-0.951,0.95-0.951h16.143
				c0.524,0,0.95,0.425,0.95,0.951C120.602,151.045,120.176,151.47,119.651,151.47z"/>
		</g>
		<g>
			<path fill="#FFFFFF" d="M132.543,139.044H90.617c-0.524,0-0.95-0.428-0.95-0.952s0.426-0.951,0.95-0.951h41.926
				c0.525,0,0.951,0.427,0.951,0.951S133.068,139.044,132.543,139.044z"/>
		</g>
	</g>
	<g>
		<path fill="#FFFFFF" d="M117.387,124.146h-11.615c-0.522,0-0.949-0.426-0.949-0.951c0-0.524,0.427-0.951,0.949-0.951h11.615
			c0.525,0,0.951,0.427,0.951,0.951C118.338,123.721,117.912,124.146,117.387,124.146z"/>
	</g>
	<g>
		<path fill="#FFFFFF" d="M117.387,128.479h-11.615c-0.522,0-0.949-0.426-0.949-0.95c0-0.525,0.427-0.951,0.949-0.951h11.615
			c0.525,0,0.951,0.426,0.951,0.951C118.338,128.054,117.912,128.479,117.387,128.479z"/>
	</g>
	<g>
		<g>
			<path fill="#FFFFFF" d="M121.111,132.395c-0.522,0-0.949-0.425-0.949-0.951l-0.001-3.518c0-0.524,0.426-0.951,0.95-0.951
				s0.951,0.427,0.951,0.951v3.518C122.063,131.97,121.638,132.395,121.111,132.395z"/>
		</g>
		<g>
			<path fill="#FFFFFF" d="M124.632,128.877L124.632,128.877h-3.521c-0.524,0-0.95-0.427-0.95-0.951s0.426-0.951,0.95-0.951l0,0
				l3.521,0.002c0.525,0,0.951,0.426,0.951,0.951C125.583,128.45,125.157,128.877,124.632,128.877z"/>
		</g>
		<g>
			<path fill="#FFFFFF" d="M126.146,133.909c-0.243,0-0.486-0.093-0.672-0.277l-5.034-5.034c-0.37-0.371-0.37-0.973,0-1.344
				c0.371-0.372,0.973-0.372,1.346,0l5.032,5.033c0.371,0.373,0.371,0.972,0,1.345C126.631,133.816,126.389,133.909,126.146,133.909
				z"/>
		</g>
	</g>
	<g>
		<circle fill="#FFFFFF" cx="111.581" cy="141.258" r="1.309"/>
	</g>
</g>
</svg>
