<?xml version="1.0" encoding="utf-8"?>
<!-- Generator: Adobe Illustrator 16.0.0, SVG Export Plug-In . SVG Version: 6.00 Build 0)  -->
<!DOCTYPE svg PUBLIC "-//W3C//DTD SVG 1.1//EN" "http://www.w3.org/Graphics/SVG/1.1/DTD/svg11.dtd">
<svg version="1.1" id="Layer_1" xmlns="http://www.w3.org/2000/svg" xmlns:xlink="http://www.w3.org/1999/xlink" x="0px" y="0px"
	 width="41.417px" height="41.248px" viewBox="0 0 41.417 41.248" enable-background="new 0 0 41.417 41.248" xml:space="preserve">
<g>
	<path fill="#FFFFFF" d="M20.833,1.664c10.477,0,19,8.523,19,19s-8.523,19-19,19s-19-8.523-19-19S10.357,1.664,20.833,1.664
		 M20.833,0.664c-11.045,0-20,8.955-20,20c0,11.046,8.955,20,20,20c11.046,0,20-8.954,20-20C40.833,9.619,31.879,0.664,20.833,0.664
		L20.833,0.664z"/>
</g>
<line fill="none" stroke="#FFFFFF" stroke-miterlimit="10" x1="20.833" y1="29.664" x2="20.833" y2="11.664"/>
<line fill="none" stroke="#FFFFFF" stroke-miterlimit="10" x1="11.833" y1="20.664" x2="29.833" y2="20.664"/>
</svg>
