<?xml version="1.0" encoding="utf-8"?>
<!-- Generator: Adobe Illustrator 16.0.0, SVG Export Plug-In . SVG Version: 6.00 Build 0)  -->
<!DOCTYPE svg PUBLIC "-//W3C//DTD SVG 1.1//EN" "http://www.w3.org/Graphics/SVG/1.1/DTD/svg11.dtd">
<svg version="1.1" id="아이콘" xmlns="http://www.w3.org/2000/svg" xmlns:xlink="http://www.w3.org/1999/xlink" x="0px" y="0px"
	 width="65px" height="46.281px" viewBox="0 0 65 46.281" enable-background="new 0 0 65 46.281" xml:space="preserve">
<g>
	<path fill="#FFFFFF" d="M60.018,5.741H43.16l-2.494-4.236C40.152,0.633,39.046,0,38.034,0H26.967c-1.013,0-2.119,0.633-2.632,1.505
		l-2.494,4.236h-5.828V4.436c0-1.255-1.019-2.274-2.274-2.274H8.886c-1.255,0-2.273,1.02-2.273,2.274v1.306h-1.63
		C2.235,5.741,0,7.979,0,10.726v30.572c0,2.747,2.235,4.983,4.982,4.983h55.035c2.747,0,4.982-2.236,4.982-4.983V10.726
		C65,7.979,62.765,5.741,60.018,5.741z M26.461,2.758c0.068-0.117,0.368-0.288,0.506-0.289h11.067
		c0.138,0.001,0.437,0.172,0.507,0.288l1.754,2.984H24.704L26.461,2.758z M9.078,4.629h4.468v1.112H9.078V4.629z M62.533,41.298
		c0,1.389-1.13,2.518-2.516,2.518H4.982c-1.387,0-2.514-1.129-2.514-2.518V10.726c0-1.387,1.127-2.515,2.514-2.515h37.465
		c0,0,0.006,0.001,0.01,0.001c0,0,0.006-0.001,0.01-0.001h17.551c1.386,0,2.516,1.128,2.516,2.515V41.298z"/>
	<path fill="#FFFFFF" d="M32.501,11.025c-8.264,0-14.987,6.724-14.987,14.986c0,8.265,6.724,14.987,14.987,14.987
		c8.263,0,14.986-6.723,14.986-14.987C47.487,17.749,40.764,11.025,32.501,11.025z M32.501,38.531
		c-6.903,0-12.519-5.617-12.519-12.52c0-6.901,5.615-12.518,12.519-12.518s12.52,5.616,12.52,12.518
		C45.021,32.914,39.404,38.531,32.501,38.531z"/>
	<path fill="#FFFFFF" d="M32.501,15.135c-5.999,0-10.878,4.88-10.878,10.877c0,5.998,4.879,10.878,10.878,10.878
		c5.997,0,10.878-4.88,10.878-10.878C43.379,20.015,38.498,15.135,32.501,15.135z M31.659,22.39c0,1.646-1.341,2.986-2.987,2.986
		c-1.647,0-2.986-1.341-2.986-2.986c0-1.646,1.339-2.988,2.986-2.988C30.318,19.401,31.659,20.743,31.659,22.39z M32.501,34.422
		c-4.638,0-8.411-3.771-8.411-8.41c0-0.208,0.018-0.415,0.031-0.621c0.978,1.476,2.652,2.453,4.551,2.453
		c3.009,0,5.455-2.446,5.455-5.454c0-2.007-1.093-3.762-2.714-4.709c0.358-0.047,0.719-0.078,1.088-0.078
		c4.638,0,8.409,3.772,8.409,8.409C40.91,30.65,37.139,34.422,32.501,34.422z"/>
	<path fill="#FFFFFF" d="M57.978,12.079h-5.828c-0.396,0-0.717,0.321-0.717,0.717v1.833c0,0.394,0.321,0.717,0.717,0.717h5.828
		c0.393,0,0.715-0.323,0.715-0.717v-1.833C58.692,12.4,58.37,12.079,57.978,12.079z"/>
</g>
</svg>
