<?xml version="1.0" encoding="utf-8"?>
<!-- Generator: Adobe Illustrator 16.0.0, SVG Export Plug-In . SVG Version: 6.00 Build 0)  -->
<!DOCTYPE svg PUBLIC "-//W3C//DTD SVG 1.1//EN" "http://www.w3.org/Graphics/SVG/1.1/DTD/svg11.dtd">
<svg version="1.1" id="아이콘" xmlns="http://www.w3.org/2000/svg" xmlns:xlink="http://www.w3.org/1999/xlink" x="0px" y="0px"
	 width="23px" height="60.734px" viewBox="0 0 23 60.734" enable-background="new 0 0 23 60.734" xml:space="preserve">
<g>
	<g>
		<g>
			<path fill="#444444" d="M11.537,13.576c-0.256,0-0.465-0.065-0.465-0.147v-2.768c0-0.081,0.209-0.147,0.465-0.147
				c0.258,0,0.465,0.066,0.465,0.147v2.768C12.002,13.511,11.795,13.576,11.537,13.576z"/>
		</g>
	</g>
	<g>
		<g>
			<path fill="#444444" d="M11.537,11.064c-1.287,0-2.336-0.875-2.336-1.952V4.833c0-1.077,1.049-1.952,2.336-1.952
				s2.334,0.875,2.334,1.952v4.278C13.871,10.189,12.824,11.064,11.537,11.064z M11.537,3.981c-0.67,0-1.234,0.391-1.234,0.853
				v4.278c0,0.462,0.564,0.853,1.234,0.853s1.234-0.391,1.234-0.853V4.833C12.771,4.371,12.207,3.981,11.537,3.981z"/>
		</g>
	</g>
	<g>
		<g>
			<path fill="#444444" d="M9.379,34.648c-2.523,0-4.857-0.829-6.57-2.334c-1.789-1.57-2.777-3.788-2.779-6.242L0.027,12.976
				c0-1.835,0.053-2.967,0.059-3.122C0.064,7.308,1.037,4.897,2.83,3.065c1.795-1.835,4.19-2.86,6.74-2.889
				c0.311,0,0.555,0.241,0.559,0.544c0.004,0.306-0.24,0.555-0.547,0.558C7.326,1.302,5.207,2.21,3.617,3.837
				C2.025,5.461,1.164,7.6,1.188,9.856c0.002,0.013,0,0.023,0,0.035c0,0.011-0.057,1.176-0.057,3.084l0.002,13.096
				c0.002,2.165,0.832,4.037,2.402,5.415c1.512,1.33,3.588,2.062,5.844,2.062c0.004,0,0.008,0,0.012,0l4.236-0.004
				c4.781-0.005,8.248-3.156,8.244-7.492l-0.078-13.623h0.012c-0.039-0.352-0.045-1.049-0.059-2.56
				c0.025-2.27-0.838-4.407-2.428-6.031c-1.592-1.627-3.709-2.535-5.967-2.561c-0.306-0.003-0.55-0.252-0.545-0.558
				c0.004-0.303,0.245-0.549,0.557-0.544c2.551,0.028,4.945,1.055,6.742,2.89c1.795,1.836,2.77,4.252,2.742,6.804
				c0.008,0.896,0.022,2.228,0.038,2.463c0.007,0.028,0.009,0.06,0.009,0.091l0.078,13.624c0.004,4.979-3.927,8.593-9.345,8.599
				L9.39,34.649C9.387,34.648,9.383,34.648,9.379,34.648z"/>
		</g>
	</g>
	<g>
		<g>
			<path fill="#444444" d="M16.217,13.63H7.178c-0.287,0-0.518-0.232-0.518-0.52c0-0.284,0.23-0.518,0.518-0.518h9.039
				c0.285,0,0.518,0.232,0.518,0.518C16.734,13.397,16.502,13.63,16.217,13.63z"/>
		</g>
	</g>
</g>
<g>
	<path fill="#444444" d="M21.646,41.859L11.499,52.006L1.356,41.861c-0.137-0.139-0.317-0.213-0.512-0.213
		c-0.189,0-0.371,0.074-0.508,0.212c-0.281,0.284-0.281,0.742,0,1.023l10.652,10.658c0.266,0.265,0.757,0.269,1.021,0l10.653-10.658
		c0.279-0.281,0.279-0.741,0-1.025C22.393,41.587,21.917,41.586,21.646,41.859z"/>
</g>
<g>
	<path fill="#444444" d="M21.646,47.859L11.499,58.006L1.356,47.861c-0.137-0.139-0.317-0.213-0.512-0.213
		c-0.189,0-0.371,0.074-0.508,0.212c-0.281,0.284-0.281,0.742,0,1.023l10.652,10.658c0.266,0.265,0.757,0.269,1.021,0l10.653-10.658
		c0.279-0.281,0.279-0.741,0-1.025C22.393,47.587,21.917,47.586,21.646,47.859z"/>
</g>
</svg>
