<?xml version="1.0" encoding="utf-8"?>
<!-- Generator: Adobe Illustrator 16.0.0, SVG Export Plug-In . SVG Version: 6.00 Build 0)  -->
<!DOCTYPE svg PUBLIC "-//W3C//DTD SVG 1.1//EN" "http://www.w3.org/Graphics/SVG/1.1/DTD/svg11.dtd">
<svg version="1.1" id="아이콘" xmlns="http://www.w3.org/2000/svg" xmlns:xlink="http://www.w3.org/1999/xlink" x="0px" y="0px"
	 width="23px" height="60.735px" viewBox="0 0 23 60.735" enable-background="new 0 0 23 60.735" xml:space="preserve">
<g>
	<g>
		<g>
			<path fill="#FFFFFF" d="M11.537,39.663c-0.256,0-0.465-0.065-0.465-0.147v-2.768c0-0.081,0.209-0.147,0.465-0.147
				c0.258,0,0.465,0.066,0.465,0.147v2.768C12.002,39.598,11.795,39.663,11.537,39.663z"/>
		</g>
	</g>
	<g>
		<g>
			<path fill="#FFFFFF" d="M11.537,37.151c-1.287,0-2.336-0.875-2.336-1.952V30.92c0-1.077,1.049-1.952,2.336-1.952
				s2.334,0.875,2.334,1.952v4.279C13.871,36.276,12.824,37.151,11.537,37.151z M11.537,30.068c-0.67,0-1.234,0.39-1.234,0.852
				v4.279c0,0.461,0.564,0.852,1.234,0.852s1.234-0.391,1.234-0.852V30.92C12.771,30.458,12.207,30.068,11.537,30.068z"/>
		</g>
	</g>
	<g>
		<g>
			<path fill="#FFFFFF" d="M9.379,60.735c-2.523,0-4.857-0.829-6.57-2.334c-1.789-1.571-2.777-3.788-2.779-6.242L0.027,39.063
				c0-1.835,0.053-2.967,0.059-3.122c-0.021-2.546,0.951-4.956,2.744-6.788c1.795-1.835,4.189-2.861,6.74-2.89
				c0.311,0,0.555,0.241,0.559,0.544c0.004,0.306-0.24,0.555-0.547,0.558c-2.256,0.024-4.375,0.933-5.965,2.56
				c-1.592,1.624-2.453,3.763-2.43,6.02c0.002,0.012,0,0.023,0,0.035c0,0.011-0.057,1.176-0.057,3.084l0.002,13.096
				c0.002,2.165,0.832,4.037,2.402,5.415c1.512,1.33,3.588,2.061,5.844,2.061c0.004,0,0.008,0,0.012,0l4.236-0.004
				c4.781-0.005,8.248-3.156,8.244-7.492l-0.078-13.623h0.012c-0.039-0.352-0.045-1.049-0.059-2.56
				c0.025-2.269-0.838-4.407-2.428-6.031c-1.592-1.627-3.709-2.535-5.967-2.56c-0.305-0.003-0.549-0.252-0.545-0.558
				c0.004-0.303,0.246-0.549,0.557-0.544c2.551,0.028,4.945,1.055,6.742,2.89c1.795,1.836,2.77,4.252,2.742,6.803
				c0.008,0.896,0.023,2.228,0.039,2.463c0.006,0.029,0.008,0.06,0.008,0.091l0.078,13.624c0.004,4.979-3.926,8.593-9.344,8.599
				l-4.238,0.004C9.387,60.735,9.383,60.735,9.379,60.735z"/>
		</g>
	</g>
	<g>
		<g>
			<path fill="#FFFFFF" d="M16.217,39.717H7.178c-0.287,0-0.518-0.232-0.518-0.519c0-0.285,0.23-0.518,0.518-0.518h9.039
				c0.285,0,0.518,0.232,0.518,0.518C16.734,39.484,16.502,39.717,16.217,39.717z"/>
		</g>
	</g>
</g>
<g>
	<g>
		<path fill="#FFFFFF" d="M1.354,20.104L11.501,9.957l10.143,10.145c0.137,0.139,0.317,0.213,0.512,0.213
			c0.189,0,0.371-0.074,0.508-0.212c0.281-0.284,0.281-0.742,0-1.023L12.011,8.421c-0.266-0.265-0.757-0.269-1.021,0L0.336,19.079
			c-0.28,0.281-0.28,0.741,0,1.025C0.607,20.376,1.083,20.377,1.354,20.104z"/>
	</g>
	<g>
		<path fill="#FFFFFF" d="M1.354,14.104L11.501,3.957l10.143,10.145c0.137,0.139,0.317,0.213,0.512,0.213
			c0.189,0,0.371-0.074,0.508-0.212c0.281-0.284,0.281-0.742,0-1.023L12.011,2.421c-0.266-0.265-0.757-0.269-1.021,0L0.336,13.079
			c-0.28,0.281-0.28,0.741,0,1.025C0.607,14.376,1.083,14.377,1.354,14.104z"/>
	</g>
</g>
</svg>
