<svg xmlns="http://www.w3.org/2000/svg" width="73.919" height="73.66" viewBox="0 0 73.919 73.66">
    <defs>
        <style>
            .cls-1{fill:#fff}.cls-2,.cls-3{fill:none;stroke:#000;stroke-linejoin:round;stroke-width:2px}.cls-2{stroke-linecap:round}
        </style>
    </defs>
    <g id="icon_step_gift" transform="translate(-290.558 -405.042)">
        <g id="사각형_142">
            <rect id="사각형_172" width="62.8" height="35.647" class="cls-1" rx="2.207" transform="translate(297.407 443.056)"/>
            <rect id="사각형_173" width="60.8" height="33.647" class="cls-2" rx="1.207" transform="translate(298.407 444.056)"/>
        </g>
        <g id="그룹_143">
            <path id="선_100" d="M0 0L0 32.552" class="cls-2" transform="translate(323.2 444.444)"/>
            <path id="선_101" d="M0 0L0 32.552" class="cls-2" transform="translate(334.414 444.444)"/>
        </g>
        <g id="그룹_144">
            <g id="다각형_7">
                <path id="패스_134" d="M317.5 421.793l-14.416-.424 8.48 13.568 5.936-13.144m1.7-1.06a2 2 0 0 1 .126 1.883l-5.936 13.144a2 2 0 0 1-3.518.237l-8.48-13.568a2 2 0 0 1 1.755-3.06l14.416.424a2 2 0 0 1 1.637.94z"/>
            </g>
            <g id="다각형_8">
                <path id="패스_135" d="M332.714 421.986l-5.936-13.144-8.478 13.568 14.416-.424m1.7 1.06a2 2 0 0 1-1.637.939l-14.416.424a2 2 0 0 1-1.755-3.059l8.48-13.568a2 2 0 0 1 3.519.236l5.936 13.144a2 2 0 0 1-.133 1.884z"/>
            </g>
            <g id="패스_128">
                <path id="패스_136" d="M351.535 416.9l-53.038 29.342a2.037 2.037 0 0 1-2.763-.79l-3.919-7.058a2.023 2.023 0 0 1 .79-2.752l53.037-29.342a2.037 2.037 0 0 1 2.763.79l3.92 7.059a2.023 2.023 0 0 1-.79 2.752z" class="cls-1"/>
                <path id="패스_137" d="M293.088 436.516a1.021 1.021 0 0 0-.4 1.391l3.92 7.058a1.035 1.035 0 0 0 1.4.4l53.039-29.343a1.024 1.024 0 0 0 .4-1.392l-3.919-7.058a1.035 1.035 0 0 0-1.4-.4l-53.038 29.342m-.97-1.75l53.038-29.342a3.035 3.035 0 0 1 4.122 1.18l3.92 7.058a3.024 3.024 0 0 1-1.18 4.113l-53.04 29.343a3.034 3.034 0 0 1-4.122-1.179l-3.92-7.059a3.023 3.023 0 0 1 1.18-4.112z"/>
            </g>
            <path id="선_102" d="M0 0L6.572 11.644" class="cls-3" transform="translate(313.367 423.099)"/>
            <path id="선_103" d="M0 0L6.138 10.893" class="cls-3" transform="translate(324.201 418.408)"/>
        </g>
        <path id="패스_111" d="M344.2 432.793h-1.261v-1.32a1.185 1.185 0 0 0-2.367-.119v1.439h-1.261a1.24 1.24 0 0 0 0 2.478h1.264v1.32a1.185 1.185 0 1 0 2.367.119 1.172 1.172 0 0 0 0-.119v-1.32h1.258a1.24 1.24 0 0 0 0-2.478z"/>
        <path id="패스_112" d="M363.091 420.993H361.6v-1.558a1.4 1.4 0 1 0-2.791 0v1.558h-1.488a1.462 1.462 0 0 0 0 2.92h1.488v1.556a1.4 1.4 0 1 0 2.791 0v-1.558h1.488a1.462 1.462 0 0 0 0-2.92z"/>
        <path id="패스_113" d="M356.5 434.07h-.942v-.986A.884.884 0 0 0 353.8 433a.6.6 0 0 0 0 .085v.986h-.941a.925.925 0 0 0 0 1.848h.941v.986a.884.884 0 1 0 1.766.084v-1.07h.942a.925.925 0 0 0 0-1.848z"/>
    </g>
</svg>
