<svg xmlns="http://www.w3.org/2000/svg" id="icon_m_home" width="24" height="24" viewBox="0 0 24 24">
    <defs>
        <style>
            .cls-3{stroke:none}
        </style>
    </defs>
    <g id="패스_116" fill="none" fill-rule="evenodd" stroke-linecap="round" stroke-linejoin="round">
        <path d="M339.751 346.46h-17.364a3.26 3.26 0 0 1-3.318-3.179V331.52a3.241 3.241 0 0 1 1.359-2.625 91.85 91.85 0 0 1 9.138-6.039 3.362 3.362 0 0 1 3.008 0 91.849 91.849 0 0 1 9.138 6.039 3.243 3.243 0 0 1 1.358 2.625v11.76a3.26 3.26 0 0 1-3.319 3.18z" class="cls-3" transform="translate(-319.069 -322.501)"/>
        <path fill="#fff" d="M339.751 344.46c.715 0 1.318-.54 1.318-1.18v-11.76c0-.394-.194-.761-.533-1.007-4.024-2.924-7.254-5.063-8.86-5.87-.186-.093-.395-.142-.607-.142-.21 0-.42.049-.606.142-1.606.807-4.836 2.946-8.861 5.87-.339.246-.533.613-.533 1.007v11.76c0 .64.603 1.18 1.318 1.18h17.364m0 2h-17.364c-1.825 0-3.318-1.43-3.318-3.18v-11.76c0-1.032.5-2.002 1.359-2.625 2.261-1.643 6.782-4.856 9.137-6.039.472-.237.988-.355 1.504-.355.517 0 1.033.118 1.504.355 2.355 1.183 6.877 4.396 9.138 6.039.858.623 1.358 1.593 1.358 2.625v11.76c0 1.75-1.492 3.18-3.318 3.18z" transform="translate(-319.069 -322.501)"/>
    </g>
    <g id="사각형_145" fill="none" stroke="#fff" stroke-linecap="round" stroke-linejoin="round" stroke-width="2px">
        <path d="M4.128 0a4.128 4.128 0 0 1 4.127 4.128v7.447H0V4.128A4.128 4.128 0 0 1 4.128 0z" class="cls-3" transform="translate(8 12.425)"/>
        <path d="M4.128 1a3.128 3.128 0 0 1 3.127 3.128v5.665a.782.782 0 0 1-.782.782H1.782A.782.782 0 0 1 1 9.793V4.128A3.128 3.128 0 0 1 4.128 1z" transform="translate(8 12.425)"/>
    </g>
</svg>
