<svg xmlns="http://www.w3.org/2000/svg" width="77.013" height="77" viewBox="0 0 77.013 77">
  <defs>
    <style>
      .cls-1 {
        fill: #fff;
      }

      .cls-1, .cls-2 {
        stroke: #000;
        stroke-linecap: round;
        stroke-linejoin: round;
        stroke-miterlimit: 10;
        stroke-width: 2px;
      }

      .cls-2 {
        fill: none;
      }
    </style>
  </defs>
  <g id="icon_step_delivery" transform="translate(-0.5 -0.5)">
    <g id="그룹_98" data-name="그룹 98" transform="translate(16.909 1.5)">
      <path id="패스_64" data-name="패스 64" class="cls-1" d="M70.664,58.529h-46.5A2.516,2.516,0,0,1,21.8,55.923V10.307A2.516,2.516,0,0,1,24.163,7.7h46.5a2.516,2.516,0,0,1,2.363,2.607V55.923A2.382,2.382,0,0,1,70.664,58.529Z" transform="translate(-18.125 -0.354)"/>
      <path id="패스_65" data-name="패스 65" class="cls-1" d="M74.963,18.241H20.014A2.127,2.127,0,0,1,18.2,16V3.741A2.127,2.127,0,0,1,20.014,1.5H74.963a2.127,2.127,0,0,1,1.814,2.241V16A1.979,1.979,0,0,1,74.963,18.241Z" transform="translate(-18.2 -1.5)"/>
    </g>
    <path id="패스_66" data-name="패스 66" class="cls-1" d="M37.133,53.322s7.391,1.9,9.517,2.251,5.872.948,6.884-2.488c.81-2.725-.2-5.924-2.531-6.872C48.978,45.384,33.69,41,33.69,41H22.351C15.568,41,10,46.924,10,46.924V59.365s3.948,5.687,9.01,5.687c4.657.118,21.261,0,23.994,0a1.927,1.927,0,0,0,.81-.118l28.752-9s5.062-2.014,3.543-7.227c-1.316-4.739-6.884-2.607-6.884-2.607L55.255,50.242" transform="translate(0.105 7.301)"/>
    <path id="패스_67" data-name="패스 67" class="cls-1" d="M8.486,70.049H3.12a1.751,1.751,0,0,1-1.62-1.9V38.3a1.751,1.751,0,0,1,1.62-1.9H8.486a1.751,1.751,0,0,1,1.62,1.9V68.154A1.751,1.751,0,0,1,8.486,70.049Z" transform="translate(0 6.451)"/>
    <line id="선_38" data-name="선 38" class="cls-2" x2="18.628" transform="translate(36.934 26.809)"/>
  </g>
</svg>
