<svg xmlns="http://www.w3.org/2000/svg" xmlns:xlink="http://www.w3.org/1999/xlink" width="68" height="65.001" viewBox="0 0 68 65.001">
  <defs>
    <style>
      .cls-1, .cls-3, .cls-5 {
        fill: none;
      }

      .cls-2 {
        fill: #fff;
      }

      .cls-3, .cls-5 {
        stroke: #000;
        stroke-linecap: round;
        stroke-linejoin: round;
      }

      .cls-3 {
        stroke-width: 2px;
      }

      .cls-4 {
        clip-path: url(#clip-path);
      }

      .cls-5 {
        stroke-width: 3px;
      }

      .cls-6 {
        clip-path: url(#clip-path-2);
      }

      .cls-7 {
        clip-path: url(#clip-path-3);
      }

      .cls-8 {
        clip-path: url(#clip-path-4);
      }

      .cls-9 {
        fill: #ed174d;
      }
    </style>
    <clipPath id="clip-path">
      <path id="SVGID" class="cls-1" d="M583.653,372.85H589.1a1.18,1.18,0,0,1,1.18,1.18h0a1.18,1.18,0,0,1-1.18,1.18h-5.451a1.181,1.181,0,0,1-1.18-1.18h0A1.18,1.18,0,0,1,583.653,372.85Z"/>
    </clipPath>
    <clipPath id="clip-path-2">
      <path id="SVGID-2" data-name="SVGID" class="cls-1" d="M593.271,372.85h5.451a1.18,1.18,0,0,1,1.18,1.18h0a1.18,1.18,0,0,1-1.18,1.18h-5.451a1.181,1.181,0,0,1-1.18-1.18h0A1.18,1.18,0,0,1,593.271,372.85Z"/>
    </clipPath>
    <clipPath id="clip-path-3">
      <path id="SVGID-3" data-name="SVGID" class="cls-1" d="M602.889,372.85h5.451a1.18,1.18,0,0,1,1.18,1.18h0a1.18,1.18,0,0,1-1.18,1.18h-5.451a1.181,1.181,0,0,1-1.18-1.18h0A1.18,1.18,0,0,1,602.889,372.85Z"/>
    </clipPath>
    <clipPath id="clip-path-4">
      <path id="SVGID-4" data-name="SVGID" class="cls-1" d="M612.507,372.85h5.451a1.18,1.18,0,0,1,1.18,1.18h0a1.18,1.18,0,0,1-1.18,1.18h-5.451a1.181,1.181,0,0,1-1.18-1.18h0A1.18,1.18,0,0,1,612.507,372.85Z"/>
    </clipPath>
  </defs>
  <g id="icon_biz_01" data-name="icon biz 01" transform="translate(-572 -317.019)">
    <g id="사각형_212" data-name="사각형 212">
      <path id="패스_208" data-name="패스 208" class="cls-2" d="M619.934,349.577h14.592a3.543,3.543,0,0,1,3.544,3.544h0a3.544,3.544,0,0,1-3.544,3.544H619.934a3.544,3.544,0,0,1-3.544-3.544h0A3.544,3.544,0,0,1,619.934,349.577Z"/>
      <path id="패스_209" data-name="패스 209" class="cls-3" d="M619.934,350.577h14.592a2.544,2.544,0,0,1,2.544,2.544h0a2.544,2.544,0,0,1-2.544,2.544H619.934a2.544,2.544,0,0,1-2.544-2.544h0A2.544,2.544,0,0,1,619.934,350.577Z"/>
    </g>
    <g id="사각형_213" data-name="사각형 213">
      <rect id="사각형_300" data-name="사각형 300" class="cls-2" width="57.191" height="39.511" rx="4" transform="translate(572 342.509)"/>
      <rect id="사각형_301" data-name="사각형 301" class="cls-3" width="55.191" height="37.511" rx="3" transform="translate(573 343.509)"/>
    </g>
    <path id="사각형_214" data-name="사각형 214" d="M598.221,349.043h5.171a1.081,1.081,0,0,1,1.081,1.081h0a1.081,1.081,0,0,1-1.081,1.081h-5.171a1.081,1.081,0,0,1-1.081-1.081h0A1.081,1.081,0,0,1,598.221,349.043Z"/>
    <path id="사각형_215" data-name="사각형 215" d="M598.221,354.122h5.171a1.081,1.081,0,0,1,1.081,1.081h0a1.081,1.081,0,0,1-1.081,1.081h-5.171a1.081,1.081,0,0,1-1.081-1.081h0A1.081,1.081,0,0,1,598.221,354.122Z"/>
    <g id="그룹_199" data-name="그룹 199">
      <g id="사각형_216" data-name="사각형 216">
        <path id="fill" class="cls-2" d="M583.653,372.85H589.1a1.18,1.18,0,0,1,1.18,1.18h0a1.18,1.18,0,0,1-1.18,1.18h-5.451a1.181,1.181,0,0,1-1.18-1.18h0A1.18,1.18,0,0,1,583.653,372.85Z"/>
        <g id="그룹_255" data-name="그룹 255">
          <g id="그룹_254" data-name="그룹 254" class="cls-4">
            <path id="패스_210" data-name="패스 210" class="cls-5" d="M582.473,373.709h7.812m-1.5-.859v2.359m1.5-.859h-7.812m1.5.859V372.85"/>
          </g>
        </g>
      </g>
      <g id="사각형_217" data-name="사각형 217">
        <path id="fill-2" class="cls-2" d="M593.271,372.85h5.451a1.18,1.18,0,0,1,1.18,1.18h0a1.18,1.18,0,0,1-1.18,1.18h-5.451a1.181,1.181,0,0,1-1.18-1.18h0A1.18,1.18,0,0,1,593.271,372.85Z"/>
        <g id="그룹_257" data-name="그룹 257">
          <g id="그룹_256" data-name="그룹 256" class="cls-6">
            <path id="패스_211" data-name="패스 211" class="cls-5" d="M592.091,373.709H599.9m-1.5-.859v2.359m1.5-.859h-7.812m1.5.859V372.85"/>
          </g>
        </g>
      </g>
      <g id="사각형_218" data-name="사각형 218">
        <path id="fill-3" class="cls-2" d="M602.889,372.85h5.451a1.18,1.18,0,0,1,1.18,1.18h0a1.18,1.18,0,0,1-1.18,1.18h-5.451a1.181,1.181,0,0,1-1.18-1.18h0A1.18,1.18,0,0,1,602.889,372.85Z"/>
        <g id="그룹_259" data-name="그룹 259">
          <g id="그룹_258" data-name="그룹 258" class="cls-7">
            <path id="패스_212" data-name="패스 212" class="cls-5" d="M601.709,373.709h7.812m-1.5-.859v2.359m1.5-.859h-7.812m1.5.859V372.85"/>
          </g>
        </g>
      </g>
      <g id="사각형_219" data-name="사각형 219">
        <path id="fill-4" class="cls-2" d="M612.507,372.85h5.451a1.18,1.18,0,0,1,1.18,1.18h0a1.18,1.18,0,0,1-1.18,1.18h-5.451a1.181,1.181,0,0,1-1.18-1.18h0A1.18,1.18,0,0,1,612.507,372.85Z"/>
        <g id="그룹_261" data-name="그룹 261">
          <g id="그룹_260" data-name="그룹 260" class="cls-8">
            <path id="패스_213" data-name="패스 213" class="cls-5" d="M611.327,373.709h7.812m-1.5-.859v2.359m1.5-.859h-7.812m1.5.859V372.85"/>
          </g>
        </g>
      </g>
    </g>
    <g id="그룹_200" data-name="그룹 200">
      <path id="패스_167" data-name="패스 167" class="cls-9" d="M618.793,326.937a23.166,23.166,0,0,0-36.21,0,1.144,1.144,0,0,0,.182,1.607l.007.006a1.16,1.16,0,0,0,1.623-.186,20.843,20.843,0,0,1,32.588,0,1.162,1.162,0,0,0,1.607.166A1.144,1.144,0,0,0,618.793,326.937Z"/>
      <path id="패스_168" data-name="패스 168" class="cls-9" d="M600.7,325.116a16.207,16.207,0,0,0-12.675,6.091,1.142,1.142,0,0,0,.186,1.605l0,0a1.159,1.159,0,0,0,1.619-.181,13.911,13.911,0,0,1,21.733,0,1.158,1.158,0,0,0,1.984-.289,1.142,1.142,0,0,0-.174-1.139A16.21,16.21,0,0,0,600.7,325.116Z"/>
      <path id="패스_169" data-name="패스 169" class="cls-9" d="M600.693,332a9.16,9.16,0,0,0-7.239,3.494,1.145,1.145,0,0,0,.192,1.608l.008.006a1.161,1.161,0,0,0,1.624-.2,6.928,6.928,0,0,1,10.842,0,1.157,1.157,0,0,0,1.98-.28,1.139,1.139,0,0,0-.162-1.137A9.162,9.162,0,0,0,600.693,332Z"/>
    </g>
    <g id="패스_207" data-name="패스 207">
      <path id="패스_214" data-name="패스 214" class="cls-2" d="M636.812,357.911H635.75a2.227,2.227,0,0,1-2.188-2.259c0-30.047,1.032-34.03,1.587-36.17.035-.135.068-.265.1-.394a1.285,1.285,0,0,1,1.195-1.069c.53,0,.93.389,1.1,1.068.021.087.043.173.065.261.588,2.359,1.394,5.591,1.394,36.3A2.227,2.227,0,0,1,636.812,357.911Z"/>
      <path id="패스_215" data-name="패스 215" d="M636.435,319.02c-.047.006-.156.07-.215.309-.033.132-.067.265-.1.4-.543,2.1-1.555,6-1.555,35.919a1.227,1.227,0,0,0,1.188,1.259h1.062A1.227,1.227,0,0,0,638,355.652c0-30.591-.789-33.753-1.364-36.062-.023-.089-.044-.177-.066-.265a.688.688,0,0,0-.135-.305m.009-2a2.157,2.157,0,0,1,2.068,1.829c.63,2.563,1.488,4.9,1.488,36.8a3.224,3.224,0,0,1-3.188,3.259H635.75a3.224,3.224,0,0,1-3.188-3.259c0-31.9,1.144-34.491,1.717-36.8A2.271,2.271,0,0,1,636.444,317.019Z"/>
    </g>
  </g>
</svg>
