<svg xmlns="http://www.w3.org/2000/svg" width="68" height="61.406" viewBox="0 0 68 61.406">
  <defs>
    <style>
      .cls-1, .cls-5 {
        fill: none;
      }

      .cls-1, .cls-2 {
        stroke: #231815;
        stroke-linecap: round;
        stroke-linejoin: round;
        stroke-width: 2px;
      }

      .cls-2 {
        fill: #fff;
      }

      .cls-3 {
        fill: #ed174d;
      }

      .cls-4 {
        stroke: none;
      }
    </style>
  </defs>
  <g id="icon_biz_03" transform="translate(-604.993 -398.608)">
    <g id="그룹_207" data-name="그룹 207" transform="translate(628.466 400.014)">
      <line id="선_116" data-name="선 116" class="cls-1" y1="13.035" x2="10.547" transform="translate(10.506)"/>
      <line id="선_117" data-name="선 117" class="cls-1" x1="10.547" y1="13.035"/>
    </g>
    <g id="사각형_265" data-name="사각형 265" class="cls-2" transform="translate(604.993 411.655)">
      <rect class="cls-4" width="68" height="48.359" rx="5"/>
      <rect class="cls-5" x="1" y="1" width="66" height="46.359" rx="4"/>
    </g>
    <g id="그룹_208" data-name="그룹 208" transform="translate(614.276 430.247)">
      <path id="패스_174" data-name="패스 174" class="cls-3" d="M115.924,213.96h-2.085c0,2.769-.008,4.563-.012,7.332-.9-2.7-1.792-4.491-2.691-7.332h-2v12.982c.676-.094,1.4-.184,2.076-.27,0-2.713,0-4.381.006-7.094.931,2.671,1.5,4.246,2.431,6.784.728-.081,1.527-.181,2.255-.253q.011-6.074.022-12.148" transform="translate(-109.134 -213.96)"/>
      <path id="패스_175" data-name="패스 175" class="cls-3" d="M225.478,213.96H219.7q-.012,5.988-.023,11.977,2.9-.257,5.8-.421c0-.584,0-1.423,0-2.006-1.258.076-2.462.154-3.717.237,0-1.073,0-1.961.007-3.034.917-.015,1.885,0,2.821-.017,0-.587,0-1.429,0-2.015-.928.016-1.908.018-2.82.035,0-1.073,0-1.662.007-2.736.574-.007,1.137-.008,1.7-.008h.59c.469,0,.939,0,1.418,0,0-.584-.014-1.422-.013-2.006" transform="translate(-210.902 -213.96)"/>
      <path id="패스_176" data-name="패스 176" class="cls-3" d="M316.146,214.076h-6.431c0,.58,0,1.415,0,2h.277c.279,0,.559,0,.838.005s.558.005.838.005h.215c0,3.218-.009,6.158-.013,9.377.68-.025,1.408-.046,2.089-.062,0-3.2.006-6.123.009-9.324l2.18-.006c0-.57,0-1.419,0-1.989" transform="translate(-293.785 -214.067)"/>
      <path id="패스_177" data-name="패스 177" class="cls-3" d="M413.549,213.96h-5.8q0,5.637,0,11.273h.678c.464,0,.931,0,1.388.005,0-1.595,0-3.05,0-4.645h.345l.819,0,.825,0c.282,0,.562,0,.835,0,0-.572,0-1.422,0-1.994-.258,0-.522,0-.788,0l-.861,0-.853,0h-.32c0-1.025,0-1.6,0-2.629h2.053c.56,0,1.121,0,1.686,0,0-.573,0-1.441,0-2.014" transform="translate(-384.037 -213.96)"/>
      <path id="패스_178" data-name="패스 178" class="cls-3" d="M497.734,214.077c.005,3.794-.013,7.588-.008,11.382,1.854.067,3.8.141,5.654.266,0-.584,0-1.423,0-2.006-1.172-.067-2.392-.148-3.565-.2-.005-3.249.013-6.2.008-9.445h-2.085" transform="translate(-466.869 -214.068)"/>
      <path id="패스_179" data-name="패스 179" class="cls-3" d="M590.484,214.081q.012,5.885.024,11.771c.679.051,1.382.106,2.061.165q0-5.964,0-11.936h-2.085" transform="translate(-552.262 -214.072)"/>
      <path id="패스_180" data-name="패스 180" class="cls-3" d="M636.792,214.084c.834,1.984,1.6,3.973,2.443,6.08-.88,2.024-1.776,4.034-2.654,5.975.728.07,1.481.173,2.209.252.522-1.25,1-2.213,1.519-3.5.521,1.368,1,2.424,1.516,3.836.726.092,1.668.224,2.393.325-.879-2.3-1.841-4.687-2.725-6.857.88-2.038,1.779-3.983,2.694-6.114H641.91c-.564,1.317-.953,2.163-1.494,3.417-.5-1.3-.842-2.148-1.347-3.417h-2.277" transform="translate(-594.699 -214.074)"/>
    </g>
  </g>
</svg>
