<svg xmlns="http://www.w3.org/2000/svg" width="60.864" height="16.333" viewBox="0 0 60.864 16.333">
  <defs>
    <style>
      .cls-1 {
        fill: #d41512;
      }
    </style>
  </defs>
  <g id="icon_netfix" transform="translate(-168.99 -349.125)">
    <path id="패스_46" data-name="패스 46" class="cls-1" d="M177.335,349.125h-2.562c-.005,3.484-.01,5.741-.015,9.225-1.1-3.4-2.2-5.651-3.308-9.225h-2.46v16.333c.83-.118,1.72-.232,2.551-.34,0-3.413,0-5.512.007-8.926,1.144,3.36,1.847,5.342,2.988,8.536.894-.1,1.877-.228,2.772-.319l.026-15.284" transform="translate(0 0)"/>
    <path id="패스_47" data-name="패스 47" class="cls-1" d="M207.1,349.125h-7.1q-.015,7.535-.029,15.069,3.562-.324,7.13-.529c0-.735,0-1.79,0-2.525-1.547.1-3.027.194-4.568.3,0-1.351.005-2.467.008-3.818,1.126-.02,2.316,0,3.467-.022,0-.738,0-1.8,0-2.536-1.14.02-2.345.022-3.466.044,0-1.351.005-2.091.008-3.442.706-.008,1.4-.009,2.088-.009h.726c.576,0,1.155,0,1.743-.006,0-.734-.017-1.79-.016-2.524" transform="translate(-20.198 0)"/>
    <path id="패스_48" data-name="패스 48" class="cls-1" d="M233.122,349.157h-7.9c0,.73,0,1.781,0,2.51h.34c.343,0,.687,0,1.03.007s.686.007,1.03.007h.264c-.005,4.05-.011,7.748-.016,11.8.836-.031,1.731-.057,2.568-.079,0-4.027.008-7.7.011-11.731l2.68-.008c0-.717,0-1.785,0-2.5" transform="translate(-36.649 -0.021)"/>
    <path id="패스_49" data-name="패스 49" class="cls-1" d="M259.825,349.125H252.7q0,7.092,0,14.184l.834,0c.57,0,1.144,0,1.705.007,0-2.007,0-3.838,0-5.844h.424l1.006,0c.338,0,.678,0,1.015,0s.69,0,1.026.006c0-.719,0-1.789,0-2.509-.317,0-.642,0-.969,0l-1.058,0-1.049,0h-.393c0-1.29,0-2.018,0-3.308h2.524c.688,0,1.378,0,2.073,0,0-.721,0-1.813,0-2.533" transform="translate(-54.562 0)"/>
    <path id="패스_50" data-name="패스 50" class="cls-1" d="M277.929,349.158c.006,4.773-.017,9.547-.011,14.321,2.279.085,4.673.177,6.949.334,0-.734,0-1.79,0-2.525-1.44-.085-2.94-.186-4.381-.246-.007-4.088.016-7.8.009-11.884h-2.562" transform="translate(-71.002 -0.021)"/>
    <path id="패스_51" data-name="패스 51" class="cls-1" d="M303.919,349.159q.015,7.405.029,14.81c.835.065,1.7.134,2.533.208q0-7.5,0-15.018h-2.562" transform="translate(-87.951 -0.022)"/>
    <path id="패스_52" data-name="패스 52" class="cls-1" d="M317.1,349.16c1.024,2.5,1.962,5,3,7.65-1.081,2.546-2.182,5.076-3.262,7.518.894.088,1.821.218,2.715.317.641-1.573,1.225-2.784,1.867-4.4.641,1.721,1.224,3.05,1.863,4.827.893.116,2.05.282,2.941.409-1.081-2.889-2.263-5.9-3.349-8.628,1.082-2.564,2.186-5.012,3.31-7.693h-2.8c-.694,1.657-1.171,2.722-1.836,4.3-.619-1.641-1.035-2.7-1.656-4.3h-2.8" transform="translate(-96.374 -0.023)"/>
  </g>
</svg>
