<svg xmlns="http://www.w3.org/2000/svg" width="136" height="38.704" viewBox="0 0 136 38.704">
  <defs>
    <style>
      .cls-1, .cls-4 {
        fill: none;
      }

      .cls-1 {
        stroke: #333;
        stroke-linecap: round;
        stroke-linejoin: round;
        stroke-width: 4px;
      }

      .cls-2 {
        fill: #333;
      }

      .cls-3 {
        stroke: none;
      }
    </style>
  </defs>
  <g id="icon_main_plus" transform="translate(-499 -1712.566)">
    <g id="tv" transform="translate(476.554 1783.647)">
      <line id="선_109" data-name="선 109" class="cls-1" y1="5.922" x2="2.855" transform="translate(28.19 -40.97)"/>
      <line id="선_110" data-name="선 110" class="cls-1" x1="2.896" y1="6.007" transform="translate(54.307 -41.055)"/>
      <g id="사각형_160" data-name="사각형 160" class="cls-1" transform="translate(26.446 -67.082)">
        <rect class="cls-3" width="32.5" height="23.616" rx="2"/>
        <rect class="cls-4" x="-2" y="-2" width="36.5" height="27.616" rx="4"/>
      </g>
      <path id="패스_122" data-name="패스 122" class="cls-2" d="M54.4-52.553,46.712-56.99a1.073,1.073,0,0,0-1.609.929v8.875a1.073,1.073,0,0,0,1.609.929L54.4-50.695A1.073,1.073,0,0,0,54.4-52.553Z" transform="translate(-6.846 -3.649)"/>
    </g>
    <g id="wifi" transform="translate(436.035 1786.445)">
      <path id="패스_123" data-name="패스 123" class="cls-2" d="M149.565-51.754a1.941,1.941,0,0,0,0,2.745,1.94,1.94,0,0,0,2.743,0,5.3,5.3,0,0,1,7.489,0,1.939,1.939,0,0,0,1.372.568,1.933,1.933,0,0,0,1.372-.568,1.941,1.941,0,0,0,0-2.745A9.187,9.187,0,0,0,149.565-51.754Z"/>
      <path id="패스_124" data-name="패스 124" class="cls-2" d="M143.878-57.44a1.94,1.94,0,0,0,0,2.744,1.942,1.942,0,0,0,2.745,0,13.354,13.354,0,0,1,18.861,0,1.937,1.937,0,0,0,1.372.568,1.939,1.939,0,0,0,1.372-.568,1.942,1.942,0,0,0,0-2.744A17.24,17.24,0,0,0,143.878-57.44Z"/>
      <path id="패스_125" data-name="패스 125" class="cls-2" d="M174.574-63.786a26.222,26.222,0,0,0-37.041,0,1.94,1.94,0,0,0,0,2.744,1.94,1.94,0,0,0,2.743,0,22.167,22.167,0,0,1,15.777-6.536,22.167,22.167,0,0,1,15.777,6.536,1.935,1.935,0,0,0,1.373.568,1.931,1.931,0,0,0,1.371-.568A1.94,1.94,0,0,0,174.574-63.786Z"/>
      <path id="패스_126" data-name="패스 126" class="cls-2" d="M156.053-46.882a2.13,2.13,0,0,0-2.129,2.13,2.13,2.13,0,0,0,2.129,2.13,2.129,2.129,0,0,0,2.129-2.13A2.129,2.129,0,0,0,156.053-46.882Z"/>
    </g>
    <path id="_" data-name="+" class="cls-2" d="M12866-4468v-6h-6v-2h6v-6h2v6h6v2h-6v6Z" transform="translate(-12311 6204)"/>
    <path id="_2" data-name="+" class="cls-2" d="M12866-4468v-6h-6v-2h6v-6h2v6h6v2h-6v6Z" transform="translate(-12239 6204)"/>
  </g>
</svg>
