<svg xmlns="http://www.w3.org/2000/svg" width="40" height="40" viewBox="0 0 40 40">
  <defs>
    <style>
      .cls-1 {
        fill: #fff;
        stroke-linecap: round;
        stroke-linejoin: round;
      }

      .cls-1, .cls-3 {
        fill-rule: evenodd;
      }

      .cls-2, .cls-3 {
        fill: #adc4f8;
      }

      .cls-4, .cls-5 {
        stroke: none;
      }

      .cls-5 {
        fill: #333;
      }
    </style>
  </defs>
  <g id="icon_quick_talk" transform="translate(-660.721 -42.989)">
    <g id="패스_85" data-name="패스 85" class="cls-1">
      <path class="cls-4" d="M 673.8212890625 81.98870849609375 C 673.6771240234375 81.98870849609375 673.4918823242188 81.92463684082031 673.3887329101563 81.75218200683594 L 673.3800048828125 74.74152374267578 L 673.3787841796875 73.74276733398438 L 672.3800048828125 73.74276733398438 L 665.6799926757813 73.74276733398438 C 663.4970092773438 73.74276733398438 661.7210083007813 71.83442687988281 661.7210083007813 69.48876953125 L 661.7210083007813 48.24299621582031 C 661.7210083007813 45.8973388671875 663.4970092773438 43.98899841308594 665.6799926757813 43.98899841308594 L 695.760986328125 43.98899841308594 C 697.9445190429688 43.98899841308594 699.7210083007813 45.8973388671875 699.7210083007813 48.24299621582031 L 699.7210083007813 69.48876953125 C 699.7210083007813 71.83442687988281 697.9445190429688 73.74276733398438 695.760986328125 73.74276733398438 L 683.5570068359375 73.74276733398438 L 683.1732788085938 73.74276733398438 L 682.8880615234375 73.99943542480469 L 674.1448974609375 81.86753845214844 C 674.0509033203125 81.94794464111328 673.9420776367188 81.98870849609375 673.8212890625 81.98870849609375 Z"/>
      <path class="cls-5" d="M 665.6799926757813 44.98899841308594 C 664.9168090820313 44.98899841308594 664.1895141601563 45.31430816650391 663.6320190429688 45.90501403808594 C 663.0445556640625 46.52745056152344 662.7210083007813 47.35775756835938 662.7210083007813 48.24300384521484 L 662.7210083007813 69.48876953125 C 662.7210083007813 70.37400817871094 663.0445556640625 71.20433044433594 663.6320190429688 71.82675170898438 C 664.1895141601563 72.41745758056641 664.9168090820313 72.74276733398438 665.6799926757813 72.74276733398438 L 672.3800048828125 72.74276733398438 C 673.4835815429688 72.74276733398438 674.378662109375 73.63667297363281 674.3800048828125 74.74028015136719 L 674.3869018554688 80.30442810058594 L 682.2191772460938 73.25611877441406 C 682.5863647460938 72.92562866210938 683.06298828125 72.74276733398438 683.5570068359375 72.74276733398438 L 695.760986328125 72.74276733398438 C 696.5243530273438 72.74276733398438 697.2518920898438 72.41737365722656 697.8096923828125 71.82654571533203 C 698.3973388671875 71.20408630371094 698.7210083007813 70.37384796142578 698.7210083007813 69.48876953125 L 698.7210083007813 48.24300384521484 C 698.7210083007813 47.35792541503906 698.3973388671875 46.52768707275391 697.8096923828125 45.90522003173828 C 697.2518920898438 45.31438446044922 696.5243530273438 44.98899841308594 695.760986328125 44.98899841308594 L 665.6799926757813 44.98899841308594 M 665.6799926757813 42.98899841308594 L 695.760986328125 42.98899841308594 C 698.489013671875 42.98899841308594 700.7210083007813 45.35300445556641 700.7210083007813 48.24300384521484 L 700.7210083007813 69.48876953125 C 700.7210083007813 72.37876892089844 698.489013671875 74.74276733398438 695.760986328125 74.74276733398438 L 683.5570068359375 74.74276733398438 L 674.8070068359375 82.61699676513672 C 674.516357421875 82.87075805664063 674.1663208007813 82.98870849609375 673.8213500976563 82.98870849609375 C 673.2024536132813 82.98870849609375 672.6002807617188 82.60885620117188 672.3889770507813 81.95201110839844 L 672.3800048828125 74.74276733398438 L 665.6799926757813 74.74276733398438 C 662.9520263671875 74.74276733398438 660.7210083007813 72.37876892089844 660.7210083007813 69.48876953125 L 660.7210083007813 48.24300384521484 C 660.7210083007813 45.35300445556641 662.9520263671875 42.98899841308594 665.6799926757813 42.98899841308594 Z"/>
    </g>
    <g id="그룹_127" data-name="그룹 127">
      <ellipse id="타원_22" data-name="타원 22" class="cls-2" cx="2.272" cy="2.248" rx="2.272" ry="2.248" transform="translate(668.002 59.565) rotate(-45)"/>
      <path id="패스_86" data-name="패스 86" class="cls-3" d="M681.164,57.328a2.264,2.264,0,1,0,1.777,1.778A2.266,2.266,0,0,0,681.164,57.328Z"/>
      <path id="패스_87" data-name="패스 87" class="cls-3" d="M690.686,57.328a2.264,2.264,0,1,0,1.777,1.778A2.267,2.267,0,0,0,690.686,57.328Z"/>
    </g>
  </g>
</svg>
