<svg xmlns="http://www.w3.org/2000/svg" width="75" height="76" viewBox="0 0 75 76">
  <defs>
    <style>
      .cls-1, .cls-2, .cls-5 {
        fill: none;
      }

      .cls-1, .cls-2, .cls-3 {
        stroke: #000;
        stroke-width: 2px;
      }

      .cls-2, .cls-3 {
        stroke-linecap: round;
        stroke-linejoin: round;
      }

      .cls-3 {
        fill: #fff;
      }

      .cls-4 {
        stroke: none;
      }
    </style>
  </defs>
  <g id="icon_step_call" transform="translate(0 -3.745)">
    <path id="패스_120" data-name="패스 120" class="cls-1" d="M69.583,118.89s-1-29.556,26.424-29.14,25.91,29.14,25.91,29.14" transform="translate(-58.25 -85)"/>
    <path id="패스_69" data-name="패스 69" class="cls-2" d="M580.638,168.684s1.517,19.055-16.009,20.161" transform="translate(-516.805 -114.559)"/>
    <g id="사각형_94" data-name="사각형 94" class="cls-3" transform="translate(0 32.656)">
      <path class="cls-4" d="M9.686,0h4.159a3.438,3.438,0,0,1,3.438,3.438V21.3a3.22,3.22,0,0,1-3.22,3.22H9.686A9.686,9.686,0,0,1,0,14.835V9.686A9.686,9.686,0,0,1,9.686,0Z"/>
      <path class="cls-5" d="M9.686,1h4.159a2.438,2.438,0,0,1,2.438,2.438V21.3a2.22,2.22,0,0,1-2.22,2.22H9.686A8.686,8.686,0,0,1,1,14.835V9.686A8.686,8.686,0,0,1,9.686,1Z"/>
    </g>
    <g id="사각형_95" data-name="사각형 95" class="cls-3" transform="translate(75 57.177) rotate(180)">
      <path class="cls-4" d="M9.686,0h4.377a3.22,3.22,0,0,1,3.22,3.22V21.083a3.438,3.438,0,0,1-3.438,3.438H9.686A9.686,9.686,0,0,1,0,14.835V9.686A9.686,9.686,0,0,1,9.686,0Z"/>
      <path class="cls-5" d="M9.686,1h4.377a2.22,2.22,0,0,1,2.22,2.22V21.083a2.438,2.438,0,0,1-2.438,2.438H9.686A8.686,8.686,0,0,1,1,14.835V9.686A8.686,8.686,0,0,1,9.686,1Z"/>
    </g>
    <g id="사각형_96" data-name="사각형 96" class="cls-3" transform="translate(32.47 69.772)">
      <rect class="cls-4" width="18.071" height="9.973" rx="4.171"/>
      <rect class="cls-5" x="1" y="1" width="16.071" height="7.973" rx="3.171"/>
    </g>
  </g>
</svg>
