<svg xmlns="http://www.w3.org/2000/svg" width="75.998" height="74.221" viewBox="0 0 75.998 74.221">
    <defs>
        <style>
            .cls-1{fill:#fff}.cls-4{fill-rule:evenodd}
        </style>
    </defs>
    <g id="icon_step_apply" transform="translate(-384.915 -354.861)">
        <g id="그룹_135">
            <g id="타원_32">
                <ellipse id="타원_41" cx="9.735" cy="9.794" class="cls-1" rx="9.735" ry="9.794" transform="translate(392.532 390.181)"/>
                <ellipse id="타원_42" cx="8.735" cy="8.794" fill="none" stroke="#000" stroke-linecap="round" stroke-linejoin="round" stroke-width="2px" rx="8.735" ry="8.794" transform="translate(393.532 391.181)"/>
            </g>
            <g id="빼기_1">
                <path id="패스_139" d="M418.008 428.082h-31.954a27.311 27.311 0 0 1 5.46-13.179c2.946-3.612 6.681-5.6 10.516-5.6s7.57 1.99 10.518 5.6a27.341 27.341 0 0 1 5.46 13.179z" class="cls-1"/>
                <path id="패스_140" d="M416.827 427.082a25.835 25.835 0 0 0-5.054-11.546c-2.754-3.376-6.215-5.235-9.743-5.235s-6.988 1.859-9.741 5.234a25.809 25.809 0 0 0-5.055 11.547h29.593m2.32 2h-34.232a28.746 28.746 0 0 1 5.824-14.81c3.139-3.85 7.149-5.971 11.291-5.971s8.152 2.121 11.293 5.971a28.781 28.781 0 0 1 5.824 14.809z"/>
            </g>
        </g>
        <g id="그룹_179">
            <path id="합치기_10" fill="#fff" stroke="#000" stroke-linecap="round" stroke-linejoin="round" stroke-width="2px" d="M425.2 384.861h-16.287a4 4 0 0 1-4-4v-21a4 4 0 0 1 4-4h47a4 4 0 0 1 4 4v21a4 4 0 0 1-4 4H435.6l-10.4 7.571z"/>
            <g id="그룹_178">
                <path id="패스_98" d="M419.012 368.1a3.081 3.081 0 0 1 4.356-.042l.019.019a3.126 3.126 0 0 1-.02 4.4 3.08 3.08 0 0 1-4.355.042l-.02-.019a3.126 3.126 0 0 1 .02-4.4z"/>
                <path id="패스_96" d="M433.147 367.226a3.118 3.118 0 1 0 2.433 2.449 3.118 3.118 0 0 0-2.433-2.449z" class="cls-4"/>
                <path id="패스_97" d="M444.069 367.226a3.118 3.118 0 1 0 2.433 2.449 3.118 3.118 0 0 0-2.433-2.449z" class="cls-4"/>
            </g>
        </g>
    </g>
</svg>
