<svg xmlns="http://www.w3.org/2000/svg" id="icon_main_internet" width="60" height="52" viewBox="0 0 60 52">
    <defs>
        <style>
            .cls-2{fill:#fff;stroke:#000;stroke-linecap:round;stroke-linejoin:round;stroke-width:2px}.cls-3{stroke:none}.cls-4{fill:none}
        </style>
    </defs>
    <path id="합치기_2" fill="#ff9595" d="M-746.185-537.261a1.861 1.861 0 0 1-.412-2.03 1.861 1.861 0 0 1 1.721-1.153 1.86 1.86 0 0 1 1.859 1.84 1.86 1.86 0 0 1-1.134 1.732 1.858 1.858 0 0 1-.726.148 1.86 1.86 0 0 1-1.308-.537zm4.578-5.033a4.619 4.619 0 0 0-3.27-1.356 4.62 4.62 0 0 0-3.271 1.356 1.693 1.693 0 0 1-2.395 0 1.693 1.693 0 0 1 .005-2.395 8 8 0 0 1 5.66-2.346 8 8 0 0 1 5.659 2.346 1.693 1.693 0 0 1 .005 2.395 1.688 1.688 0 0 1-1.2.5 1.687 1.687 0 0 1-1.192-.5zm4.96-4.919a11.649 11.649 0 0 0-16.46 0 1.694 1.694 0 0 1-2.395 0 1.694 1.694 0 0 1-.005-2.395 15.05 15.05 0 0 1 21.261 0 1.694 1.694 0 0 1-.005 2.395 1.689 1.689 0 0 1-1.2.494 1.688 1.688 0 0 1-1.195-.495z" transform="translate(774.876 561.604)"/>
    <g id="사각형_28" class="cls-2" transform="rotate(90 7.5 7.5)">
        <rect width="35" height="9" class="cls-3" rx="3"/>
        <rect width="33" height="7" x="1" y="1" class="cls-4" rx="2"/>
    </g>
    <g id="사각형_29" class="cls-2" transform="rotate(90 27 27)">
        <rect width="35" height="9" class="cls-3" rx="3"/>
        <rect width="33" height="7" x="1" y="1" class="cls-4" rx="2"/>
    </g>
    <g id="사각형_27" class="cls-2" transform="translate(0 28)">
        <rect width="60" height="24" class="cls-3" rx="5"/>
        <rect width="58" height="22" x="1" y="1" class="cls-4" rx="4"/>
    </g>
</svg>
