<svg xmlns="http://www.w3.org/2000/svg" width="63.409" height="59.85" viewBox="0 0 63.409 59.85">
  <defs>
    <style>
      .cls-1, .cls-2 {
        fill: #fff;
      }

      .cls-2 {
        stroke: #000;
      }

      .cls-2, .cls-5, .cls-6 {
        stroke-linecap: round;
        stroke-width: 2px;
      }

      .cls-2, .cls-5 {
        stroke-linejoin: round;
      }

      .cls-3 {
        fill: #80a7ff;
      }

      .cls-4 {
        fill: #ed174d;
      }

      .cls-5, .cls-6, .cls-8 {
        fill: none;
      }

      .cls-5, .cls-6 {
        stroke: #80a7ff;
      }

      .cls-7 {
        stroke: none;
      }
    </style>
  </defs>
  <g id="icon_b2b_04" transform="translate(-404 -2077)">
    <g id="그룹_269" data-name="그룹 269" transform="translate(-254.199 1815.811)">
      <g id="패스_219" data-name="패스 219">
        <path id="패스_223" data-name="패스 223" class="cls-1" d="M681.581,315.182a36.3,36.3,0,0,1-6.281-.267,20.816,20.816,0,0,0-2.569-.377c-2.505-.273-5.936-.647-6.628-2.428a12.01,12.01,0,0,1-.9-4.7,4.786,4.786,0,0,1,1.7-3.714c.465-.372.929-.762,1.378-1.139,2.342-1.967,4.554-3.826,7.779-4.143,1.554-.153,2.929-.228,4.2-.228a28.664,28.664,0,0,1,8.095,1.132c4.258,1.217,10.22,7.722,10.28,7.787l.391.43.568-.128,17.107-3.856a4.95,4.95,0,0,1,.567-.031,2.984,2.984,0,0,1,3.183,1.948,3.117,3.117,0,0,1-.518,2.865,4.641,4.641,0,0,1-1,.989c-6.03,1.56-21.549,5.476-23.625,5.561C693.788,314.948,686.977,315.182,681.581,315.182Z"/>
        <path id="패스_224" data-name="패스 224" d="M680.27,299.189c-1.241,0-2.584.073-4.105.223-2.917.287-5.014,2.049-7.234,3.914-.453.38-.922.774-1.4,1.154-2.354,1.882-.978,6.039-.5,7.268.208.536,1.058.9,1.734,1.109a23,23,0,0,0,4.071.687,21.355,21.355,0,0,1,2.7.4,36.305,36.305,0,0,0,6.038.237c5.379,0,12.171-.233,13.7-.3.343-.014,2.265-.258,12.6-2.8,4.758-1.172,9.333-2.347,10.623-2.679a3.715,3.715,0,0,0,.641-.665,2.112,2.112,0,0,0,.365-1.986c-.091-.305-.366-1.233-2.225-1.233a3.837,3.837,0,0,0-.4.019l-17.053,3.844a2,2,0,0,1-1.919-.6c-1.608-1.766-6.506-6.554-9.815-7.5a27.679,27.679,0,0,0-7.82-1.094h0m0-2a29.694,29.694,0,0,1,8.37,1.171c4.58,1.308,10.744,8.075,10.744,8.075l17.149-3.866a5.359,5.359,0,0,1,.745-.046,3.986,3.986,0,0,1,4.142,2.663c.959,3.228-2.063,5.065-2.063,5.065s-21.339,5.525-24,5.634c-1.691.069-8.45.3-13.777.3a41.77,41.77,0,0,1-6.524-.3c-2.441-.61-8.666-.272-9.886-3.413s-1.721-7.286,1.115-9.554,5.473-5.082,9.683-5.5C677.428,297.278,678.847,297.189,680.27,297.189Z"/>
      </g>
      <path id="패스_220" data-name="패스 220" class="cls-2" d="M685.215,298.647s15.32,3.631,16.59,4.138,2.779,1.618,2,3.8-3.111,1.887-4.131,1.669S689.756,306,689.756,306"/>
    </g>
    <g id="사각형_317" data-name="사각형 317" class="cls-2" transform="translate(404 2109.85)">
      <rect class="cls-7" width="11" height="27" rx="4"/>
      <rect class="cls-8" x="1" y="1" width="9" height="25" rx="3"/>
    </g>
    <circle id="타원_53" data-name="타원 53" class="cls-3" cx="13" cy="13" r="13" transform="translate(427.824 2081)"/>
    <g id="그룹_268" data-name="그룹 268" transform="translate(422.427 2077)">
      <circle id="타원_53-2" data-name="타원 53" class="cls-4" cx="13.5" cy="13.5" r="13.5"/>
      <g id="그룹_267" data-name="그룹 267" transform="translate(6.998 10)">
        <path id="패스_221" data-name="패스 221" class="cls-5" d="M21644.166,6617.167l2.5,8.417,2.75-8.417,1.707,5.943.711,2.474,2.75-8.417" transform="translate(-21642.666 -6617.167)"/>
        <path id="패스_222" data-name="패스 222" class="cls-6" d="M21645.666,6620H21659" transform="translate(-21645.666 -6617.167)"/>
      </g>
    </g>
  </g>
</svg>
