<svg xmlns="http://www.w3.org/2000/svg" width="20.369" height="20.5" viewBox="0 0 20.369 20.5">
    <defs>
        <style>
            .cls-1{fill:none;stroke:#666;stroke-linecap:round;stroke-linejoin:round;stroke-width:1.5px}
        </style>
    </defs>
    <g id="icon_share" transform="translate(.75 .75)">
        <path id="패스_57" d="M28.2 5.85A2.85 2.85 0 1 1 25.35 3a2.85 2.85 0 0 1 2.85 2.85z" class="cls-1" transform="translate(-9.331 -3)"/>
        <path id="패스_58" d="M10.2 16.35a2.85 2.85 0 1 1-2.85-2.85 2.85 2.85 0 0 1 2.85 2.85z" class="cls-1" transform="translate(-4.5 -6.85)"/>
        <path id="패스_59" d="M28.2 26.85A2.85 2.85 0 1 1 25.35 24a2.85 2.85 0 0 1 2.85 2.85z" class="cls-1" transform="translate(-9.331 -10.7)"/>
        <path id="패스_60" d="M12.885 20.265l6.488 3.781" class="cls-1" transform="translate(-6.689 -9.331)"/>
        <path id="패스_61" d="M19.364 9.765l-6.479 3.781" class="cls-1" transform="translate(-6.69 -5.481)"/>
    </g>
</svg>
