<svg xmlns="http://www.w3.org/2000/svg" xmlns:xlink="http://www.w3.org/1999/xlink" width="63" height="58" viewBox="0 0 63 58">
  <defs>
    <style>
      .cls-1 {
        fill: none;
      }

      .cls-2 {
        clip-path: url(#clip-path);
      }

      .cls-3 {
        fill: #80a7ff;
      }

      .cls-4 {
        fill: #ed174d;
      }
    </style>
    <clipPath id="clip-path">
      <rect id="SVGID" class="cls-1" width="33.523" height="57.736"/>
    </clipPath>
  </defs>
  <g id="icon_b2b_06" transform="translate(-651.5 -2397)">
    <g id="그룹_221" data-name="그룹 221" transform="translate(651.5 2397)">
      <path id="패스_200" data-name="패스 200" d="M31.975-7.255a5.486,5.486,0,0,1-3.717-1.414L24.54-12.086A4.613,4.613,0,0,1,23-15.5a4.608,4.608,0,0,1,1.54-3.417,5.728,5.728,0,0,1,7.435,0l3.72,3.417a4.57,4.57,0,0,1,0,6.835,5.5,5.5,0,0,1-3.72,1.414ZM28.258-17.92a2.731,2.731,0,0,0-1.859.708,2.306,2.306,0,0,0-.77,1.709,2.306,2.306,0,0,0,.77,1.709l3.717,3.417a2.8,2.8,0,0,0,3.72,0,2.283,2.283,0,0,0,0-3.417l-3.72-3.417a2.731,2.731,0,0,0-1.859-.708Zm0,0" transform="translate(-23 37.961)"/>
      <path id="패스_201" data-name="패스 201" d="M80.2-99.63a1.265,1.265,0,0,1-1.314-1.208V-116.45a2.534,2.534,0,0,0-2.629-2.417,2.534,2.534,0,0,0-2.629,2.417v13.7a1.265,1.265,0,0,1-1.314,1.208A1.265,1.265,0,0,1,71-102.747v-13.7a5.064,5.064,0,0,1,5.258-4.833,5.064,5.064,0,0,1,5.258,4.833v15.612A1.265,1.265,0,0,1,80.2-99.63Zm0,0" transform="translate(-63.114 123.7)"/>
      <g id="그룹_220" data-name="그룹 220" transform="translate(0.578 0)">
        <g id="그룹_219" data-name="그룹 219" class="cls-2" transform="translate(0 0)">
          <path id="패스_202" data-name="패스 202" d="M128.2-110.869a1.265,1.265,0,0,1-1.314-1.208V-132.45a2.534,2.534,0,0,0-2.629-2.417,2.534,2.534,0,0,0-2.629,2.417v18.028a1.265,1.265,0,0,1-1.314,1.208A1.265,1.265,0,0,1,119-114.421V-132.45a5.064,5.064,0,0,1,5.258-4.833,5.064,5.064,0,0,1,5.258,4.833v20.372a1.264,1.264,0,0,1-1.314,1.208Zm0,0" transform="translate(-103.805 137.283)"/>
          <path id="패스_203" data-name="패스 203" d="M176.2-92.283a1.266,1.266,0,0,1-1.314-1.208V-116.45a2.534,2.534,0,0,0-2.629-2.417,2.534,2.534,0,0,0-2.629,2.417V-98.2A1.266,1.266,0,0,1,168.314-97,1.266,1.266,0,0,1,167-98.2V-116.45a5.064,5.064,0,0,1,5.258-4.833,5.064,5.064,0,0,1,5.258,4.833v22.958a1.266,1.266,0,0,1-1.314,1.208Zm0,0" transform="translate(-143.919 123.7)"/>
          <path id="패스_204" data-name="패스 204" d="M110.843,21.785a1.374,1.374,0,0,1-.931-.355l-8.194-7.557a5.531,5.531,0,0,1-1.906-4.449,5.5,5.5,0,0,1,1.919-4.085,7.067,7.067,0,0,1,7.787-1,5.414,5.414,0,0,1,1.472,1.008l9.979,9.149a1.139,1.139,0,0,1,0,1.709,1.4,1.4,0,0,1-1.859,0l-9.981-9.152a3.064,3.064,0,0,0-.839-.582,4.066,4.066,0,0,0-4.706.57,3.255,3.255,0,0,0-1.151,2.443,3.235,3.235,0,0,0,1.128,2.663l8.207,7.569a1.141,1.141,0,0,1,0,1.709,1.363,1.363,0,0,1-.926.355Zm0,0" transform="translate(-87.762 17.679)"/>
          <path id="패스_205" data-name="패스 205" d="M40.087,41.148C30.666,41.148,23,34.1,23,25.44V11.476a1.319,1.319,0,0,1,2.629,0V25.44c0,7.33,6.485,13.292,14.458,13.292S54.546,32.77,54.546,25.44V11.476a1.319,1.319,0,0,1,2.629,0V25.44c0,8.661-7.666,15.708-17.087,15.708Zm0,0" transform="translate(-23.578 12.018)"/>
        </g>
      </g>
      <path id="패스_206" data-name="패스 206" d="M74.716,185.048H58.943A3.8,3.8,0,0,1,55,181.423v-6.138a1.319,1.319,0,0,1,2.629,0v6.138a1.266,1.266,0,0,0,1.314,1.208H74.716a1.266,1.266,0,0,0,1.314-1.208v-6.138a1.319,1.319,0,0,1,2.629,0v6.138a3.8,3.8,0,0,1-3.943,3.625Zm0,0" transform="translate(-49.742 -127.048)"/>
    </g>
    <g id="그룹_223" data-name="그룹 223" transform="translate(689.069 2429.299)">
      <circle id="타원_47" data-name="타원 47" class="cls-3" cx="12.716" cy="12.716" r="12.716"/>
      <path id="합치기_20" data-name="합치기 20" class="cls-4" d="M8.415,9.77,5.025,6.381,1.636,9.77A.958.958,0,0,1,.281,8.415L3.67,5.026.281,1.637A.959.959,0,0,1,1.636.281L5.026,3.67,8.415.281A.958.958,0,1,1,9.77,1.636L6.381,5.026,9.77,8.415A.958.958,0,1,1,8.415,9.77Z" transform="translate(7.417 7.418)"/>
    </g>
  </g>
</svg>
