<svg xmlns="http://www.w3.org/2000/svg" width="77" height="77.539" viewBox="0 0 77 77.539">
    <defs>
        <style>
            .cls-3{fill:#fff}.cls-2,.cls-3{stroke:#000;stroke-linecap:round;stroke-width:2px}.cls-2{fill:none}.cls-2,.cls-3{stroke-linejoin:round}
        </style>
    </defs>
    <g id="icon_step_setting" transform="translate(-184.362 -312.71)">
        <g id="그룹_140" transform="translate(185.362 327.896)">
            <path id="패스_105" fill="#fff" stroke="#000" stroke-linecap="round" stroke-width="2px" d="M5.945.029L8.506 0A5.408 5.408 0 0 1 14 5.5l-.324 28.64a5.712 5.712 0 0 1-5.62 5.62l-2.556.025A5.408 5.408 0 0 1 0 34.29L.324 5.65A5.712 5.712 0 0 1 5.945.029z" transform="rotate(-45 50.584 -10.115)"/>
            <path id="선_97" d="M14.093 14.416L0 0" class="cls-2" transform="translate(12.994 13.292)"/>
            <path id="패스_104" d="M190.682 322.573l4.241-.092 5.008 5.123-1.994 7.74-7.567 2.039-5.008-5.123.09-4.338" class="cls-2" transform="translate(-185.362 -322.481)"/>
        </g>
        <g id="그룹_145" transform="translate(225.021 313.71)">
            <path id="패스_115" d="M287.919 422.253h-1a1.483 1.483 0 0 0-1.438 1.12 15.629 15.629 0 0 1-1.741 4.211 1.481 1.481 0 0 0 .224 1.807l.708.71-3.858 3.866-.706-.708a1.48 1.48 0 0 0-1.809-.224 15.578 15.578 0 0 1-4.2 1.744 1.483 1.483 0 0 0-1.12 1.437v1h-5.456v-1a1.483 1.483 0 0 0-1.12-1.437 15.579 15.579 0 0 1-4.2-1.744 1.479 1.479 0 0 0-1.809.224l-.706.708-3.858-3.866.709-.71a1.483 1.483 0 0 0 .222-1.807 15.675 15.675 0 0 1-1.743-4.211 1.48 1.48 0 0 0-1.437-1.12h-1v-5.469h1a1.48 1.48 0 0 0 1.437-1.12 15.675 15.675 0 0 1 1.743-4.211 1.483 1.483 0 0 0-.222-1.807l-.709-.71 3.858-3.866.706.708a1.481 1.481 0 0 0 1.806.222 15.53 15.53 0 0 1 4.2-1.745 1.483 1.483 0 0 0 1.119-1.437v-1h5.456v1a1.483 1.483 0 0 0 1.12 1.437A15.539 15.539 0 0 1 278.3 406a1.482 1.482 0 0 0 1.809-.225l.706-.708 3.858 3.866-.708.71a1.481 1.481 0 0 0-.224 1.807 15.629 15.629 0 0 1 1.741 4.211 1.483 1.483 0 0 0 1.438 1.12h1zm-8.967-19.5" class="cls-3" transform="translate(-252.578 -401.819)"/>
            <circle id="타원_34" cx="8.704" cy="8.704" r="8.704" class="cls-3" transform="translate(8.967 8.996)"/>
        </g>
    </g>
</svg>
