<svg xmlns="http://www.w3.org/2000/svg" width="40" height="40" viewBox="0 0 40 40">
  <defs>
    <style>
      .cls-1 {
        fill: #fff;
        stroke-linecap: round;
        stroke-linejoin: round;
      }

      .cls-2 {
        fill: #adc4f8;
        font-size: 11.339px;
        font-family: BMJUA, BM JUA_TTF;
      }

      .cls-3, .cls-4 {
        stroke: none;
      }

      .cls-4 {
        fill: #333;
      }
    </style>
  </defs>
  <g id="icon_quick_kakao" transform="translate(-662.426 -90.541)">
    <g id="패스_84" data-name="패스 84" class="cls-1">
      <path class="cls-3" d="M 669.42529296875 129.5409851074219 C 669.325439453125 129.5409851074219 669.2116088867188 129.4774169921875 669.1207885742188 129.3709259033203 C 668.9697875976563 129.1938629150391 668.90771484375 128.93896484375 668.950439453125 128.6715850830078 L 669.8363647460938 123.1462936401367 L 669.9244384765625 122.5971908569336 L 669.50439453125 122.2327117919922 C 667.6051635742188 120.5845184326172 666.1103515625 118.6383285522461 665.0615844726563 116.4482116699219 C 663.976318359375 114.1819839477539 663.426025390625 111.7656784057617 663.426025390625 109.2664337158203 C 663.426025390625 104.5442504882813 665.3939208984375 100.1011199951172 668.9672241210938 96.75550842285156 C 670.7119750976563 95.1219482421875 672.7447509765625 93.8389892578125 675.0091552734375 92.94228363037109 C 677.357177734375 92.01245880126953 679.8525390625 91.54100036621094 682.426025390625 91.54100036621094 C 684.9994506835938 91.54100036621094 687.494873046875 92.01245880126953 689.8428344726563 92.94228363037109 C 692.1072387695313 93.8389892578125 694.1400756835938 95.1219482421875 695.884765625 96.75550842285156 C 699.4581298828125 100.1011199951172 701.426025390625 104.5442581176758 701.426025390625 109.2664337158203 C 701.426025390625 113.9886093139648 699.4581298828125 118.4317398071289 695.884765625 121.7773590087891 C 694.1400756835938 123.4109191894531 692.1072387695313 124.6938705444336 689.8428344726563 125.5905914306641 C 687.494873046875 126.5204086303711 684.9994506835938 126.9918670654297 682.426025390625 126.9918670654297 C 680.2661743164063 126.9918670654297 678.1088256835938 126.6357116699219 676.0138549804688 125.9333038330078 L 675.568359375 125.7839202880859 L 675.1690063476563 126.0315322875977 L 669.60302734375 129.4826354980469 C 669.539794921875 129.5218353271484 669.4815063476563 129.5409851074219 669.42529296875 129.5409851074219 Z"/>
      <path class="cls-4" d="M 682.426025390625 92.54100036621094 C 677.59326171875 92.54100036621094 673.0562133789063 94.29698944091797 669.6506958007813 97.48548889160156 C 666.281494140625 100.6399917602539 664.426025390625 104.8238677978516 664.426025390625 109.2664337158203 C 664.426025390625 111.614990234375 664.9432983398438 113.8859710693359 665.9635009765625 116.0163040161133 C 666.9527587890625 118.082160949707 668.3646240234375 119.919563293457 670.1598510742188 121.4774475097656 C 670.6821899414063 121.9307403564453 670.9332885742188 122.6217193603516 670.8237915039063 123.3046035766602 L 670.068115234375 128.0176696777344 L 674.64208984375 125.181640625 C 674.9622192382813 124.9831314086914 675.3277587890625 124.8814163208008 675.6961059570313 124.8814163208008 C 675.9097900390625 124.8814163208008 676.12451171875 124.9156875610352 676.331787109375 124.9851684570313 C 678.3240966796875 125.6531677246094 680.3744506835938 125.9918670654297 682.426025390625 125.9918670654297 C 687.2587890625 125.9918670654297 691.7958374023438 124.2358779907227 695.2013549804688 121.0473785400391 C 698.5704956054688 117.8928680419922 700.426025390625 113.708984375 700.426025390625 109.2664337158203 C 700.426025390625 104.8238830566406 698.5704956054688 100.6399917602539 695.2013549804688 97.48548889160156 C 691.7958374023438 94.29698944091797 687.2587890625 92.54100036621094 682.426025390625 92.54100036621094 M 682.426025390625 90.54100036621094 C 693.4719848632813 90.54100036621094 702.426025390625 98.92459106445313 702.426025390625 109.2664337158203 C 702.426025390625 119.608268737793 693.4719848632813 127.9918670654297 682.426025390625 127.9918670654297 C 680.0609741210938 127.9918670654297 677.802001953125 127.5875473022461 675.6959838867188 126.8814239501953 L 670.1300048828125 130.33251953125 C 669.8983764648438 130.4760131835938 669.658203125 130.5409851074219 669.42529296875 130.5409851074219 C 668.5531616210938 130.5409851074219 667.7846069335938 129.6291809082031 667.9630126953125 128.513671875 L 668.8489990234375 122.9879684448242 C 664.9080200195313 119.5679473876953 662.426025390625 114.6942443847656 662.426025390625 109.2664337158203 C 662.426025390625 98.92459106445313 671.3800048828125 90.54100036621094 682.426025390625 90.54100036621094 Z"/>
    </g>
    <text id="TALK" class="cls-2" transform="translate(669.598 113.134)"><tspan x="0" y="0">TALK</tspan></text>
  </g>
</svg>
