<svg xmlns="http://www.w3.org/2000/svg" width="41.71" height="38" viewBox="0 0 41.71 38">
    <defs>
        <style>
            .cls-4{stroke:none}
        </style>
    </defs>
    <g id="icon_quick_write" transform="translate(-664.721 -43.989)">
        <g id="그룹_272" transform="translate(664.721 43.989)">
            <g id="사각형_319" fill="#fff" stroke="#333" stroke-width="2px">
                <rect width="33" height="38" class="cls-4" rx="5"/>
                <rect width="31" height="36" x="1" y="1" fill="none" rx="4"/>
            </g>
            <path id="합치기_22" fill="#adc4f8" d="M11282-4926a1 1 0 0 1-1-1 1 1 0 0 1 1-1h14a1 1 0 0 1 1 1 1 1 0 0 1-1 1zm0-8a1 1 0 0 1-1-1 1 1 0 0 1 1-1h14a1 1 0 0 1 1 1 1 1 0 0 1-1 1zm0-8a1 1 0 0 1-1-1 1 1 0 0 1 1-1h14a1 1 0 0 1 1 1 1 1 0 0 1-1 1z" transform="translate(-11272 4953.999)"/>
            <g id="패스_225" fill="#fff">
                <path d="M3.997 27.148c-.209-.026-.942-.568-1.8-2.032C1.447 23.84 1 22.53 1 22V3c0-1.103.897-2 2-2h2c1.103 0 2 .897 2 2v19c0 .529-.448 1.839-1.199 3.116-.86 1.464-1.594 2.006-1.804 2.032z" class="cls-4" transform="rotate(29 2.965 70.806)"/>
                <path fill="#333" d="M3 2c-.551 0-1 .449-1 1v18.996c.007.227.24 1.125.889 2.313.425.779.827 1.304 1.109 1.606.282-.302.685-.827 1.111-1.606.65-1.188.884-2.086.891-2.309V3c0-.551-.449-1-1-1H3m0-2h2c1.657 0 3 1.343 3 3v19c0 1.657-2.346 6.148-4.003 6.148C2.341 28.148 0 23.657 0 22V3c0-1.657 1.343-3 3-3z" transform="rotate(29 2.965 70.806)"/>
            </g>
        </g>
    </g>
</svg>
