<svg xmlns="http://www.w3.org/2000/svg" width="54" height="58" viewBox="0 0 54 58">
  <defs>
    <style>
      .cls-1 {
        fill: #ed174d;
      }

      .cls-2 {
        fill: #80a7ff;
      }
    </style>
  </defs>
  <g id="icon_b2b_03" transform="translate(-0.328 -0.316)">
    <path id="합치기_15" data-name="합치기 15" class="cls-1" d="M3.11,15.032a1.818,1.818,0,0,1-.724-1.782l.565-3.3-2.4-2.34a1.79,1.79,0,0,1-.46-1.861A1.807,1.807,0,0,1,1.562,4.5l3.31-.479,1.481-3a1.825,1.825,0,0,1,3.274,0l1.481,3L14.42,4.5a1.815,1.815,0,0,1,1.01,3.1l-2.392,2.34.565,3.3a1.822,1.822,0,0,1-2.642,1.922L8,13.609,5.032,15.165a1.776,1.776,0,0,1-.849.212A1.859,1.859,0,0,1,3.11,15.032Z" transform="translate(0.328 0.316)"/>
    <path id="합치기_16" data-name="합치기 16" class="cls-2" d="M3.11,15.032a1.818,1.818,0,0,1-.724-1.782l.565-3.3-2.4-2.34a1.79,1.79,0,0,1-.46-1.861A1.807,1.807,0,0,1,1.562,4.5l3.31-.479,1.481-3a1.825,1.825,0,0,1,3.274,0l1.481,3L14.42,4.5a1.815,1.815,0,0,1,1.01,3.1l-2.392,2.34.565,3.3a1.822,1.822,0,0,1-2.642,1.922L8,13.609,5.032,15.165a1.776,1.776,0,0,1-.849.212A1.859,1.859,0,0,1,3.11,15.032Z" transform="translate(19.335 0.316)"/>
    <path id="합치기_17" data-name="합치기 17" class="cls-1" d="M3.11,15.032a1.818,1.818,0,0,1-.724-1.782l.565-3.3-2.4-2.34a1.79,1.79,0,0,1-.46-1.861A1.807,1.807,0,0,1,1.562,4.5l3.31-.479,1.481-3a1.825,1.825,0,0,1,3.274,0l1.481,3L14.42,4.5a1.815,1.815,0,0,1,1.01,3.1l-2.392,2.34.565,3.3a1.822,1.822,0,0,1-2.642,1.922L8,13.609,5.032,15.165a1.776,1.776,0,0,1-.849.212A1.859,1.859,0,0,1,3.11,15.032Z" transform="translate(38.342 0.316)"/>
    <path id="패스_185" data-name="패스 185" d="M150.47,170.364a3.737,3.737,0,0,0-1.826.475,3.822,3.822,0,0,0-3.561-2.5,3.738,3.738,0,0,0-1.92.53,3.815,3.815,0,0,0-3.466-2.267,3.733,3.733,0,0,0-1.573.347V161.5a3.814,3.814,0,1,0-7.627,0v12.1h0v3.267l-1.057-1.993a3.906,3.906,0,0,0-5.268-1.684,4.04,4.04,0,0,0-2.066,4.545l2.051,8.653a15.747,15.747,0,0,0,2.54,5.58l4.017,5.6a1.106,1.106,0,0,0,1.565.248,1.154,1.154,0,0,0,.244-1.594l-4.017-5.6a13.457,13.457,0,0,1-2.171-4.769l-2.051-8.653a1.755,1.755,0,0,1,.9-1.974,1.7,1.7,0,0,1,2.288.731l3.163,5.963a1.113,1.113,0,0,0,1.26.564,1.137,1.137,0,0,0,.846-1.106V161.5a1.574,1.574,0,1,1,3.147,0v16.091a1.12,1.12,0,1,0,2.24,0v-7.1a1.574,1.574,0,1,1,3.147,0v7.1a1.12,1.12,0,1,0,2.24,0v-5.367a1.573,1.573,0,1,1,3.146,0v5.367a1.12,1.12,0,1,0,2.24,0v-3.347a1.574,1.574,0,1,1,3.147,0v9.622a25.625,25.625,0,0,1-1.136,7.551l-1.58,5.129a1.144,1.144,0,0,0,.734,1.429,1.1,1.1,0,0,0,.335.053,1.123,1.123,0,0,0,1.069-.8l1.58-5.129a27.942,27.942,0,0,0,1.238-8.233v-9.622A3.853,3.853,0,0,0,150.47,170.364Z" transform="translate(-108.39 -139.714)"/>
  </g>
</svg>
