<svg xmlns="http://www.w3.org/2000/svg" width="50" height="64" viewBox="0 0 50 64">
  <defs>
    <style>
      .cls-1 {
        fill: #080505;
      }

      .cls-2 {
        fill: #ed174d;
      }

      .cls-3 {
        fill: #80a7ff;
      }
    </style>
  </defs>
  <g id="icon_b2b_05" transform="translate(-665 -2279)">
    <path id="패스_195" data-name="패스 195" class="cls-1" d="M219.038,381.4a25.152,25.152,0,0,0-15.375,0c-3.157,1.175-3.823,2.761-3.823,3.893v14.865c0,1.118.666,2.7,3.823,3.893a25.152,25.152,0,0,0,15.375,0c3.157-1.175,3.823-2.761,3.823-3.893V385.3c.014-1.118-.652-2.7-3.823-3.893ZM204.554,383.8a22.859,22.859,0,0,1,13.591,0c1.713.637,2.152,1.274,2.166,1.486v.043c-.028.212-.453.85-2.166,1.486a22.859,22.859,0,0,1-13.591,0c-1.77-.665-2.18-1.331-2.18-1.5s.4-.863,2.18-1.515Zm13.605,17.839a22.859,22.859,0,0,1-13.591,0c-1.77-.666-2.18-1.331-2.18-1.5v-1.586a11.256,11.256,0,0,0,1.289.566,25.152,25.152,0,0,0,15.375,0,12.369,12.369,0,0,0,1.289-.566v1.586c-.014.17-.411.835-2.18,1.5Zm2.167-6.47v.014c-.029.212-.454.85-2.167,1.486a22.858,22.858,0,0,1-13.591,0c-1.77-.665-2.18-1.331-2.18-1.5v-1.586a11.386,11.386,0,0,0,1.289.566,25.152,25.152,0,0,0,15.375,0,12.526,12.526,0,0,0,1.289-.566Zm0-4.97v.015c-.029.212-.454.849-2.167,1.486a22.858,22.858,0,0,1-13.591,0c-1.77-.666-2.18-1.331-2.18-1.5v-1.586a11.25,11.25,0,0,0,1.289.566,25.151,25.151,0,0,0,15.375,0,12.362,12.362,0,0,0,1.289-.566Zm0,0" transform="translate(465.16 1937.742)"/>
    <path id="패스_196" data-name="패스 196" class="cls-1" d="M219.038,381.4a25.152,25.152,0,0,0-15.375,0c-3.157,1.175-3.823,2.761-3.823,3.893v14.865c0,1.118.666,2.7,3.823,3.893a25.152,25.152,0,0,0,15.375,0c3.157-1.175,3.823-2.761,3.823-3.893V385.3c.014-1.118-.652-2.7-3.823-3.893ZM204.554,383.8a22.859,22.859,0,0,1,13.591,0c1.713.637,2.152,1.274,2.166,1.486v.043c-.028.212-.453.85-2.166,1.486a22.859,22.859,0,0,1-13.591,0c-1.77-.665-2.18-1.331-2.18-1.5s.4-.863,2.18-1.515Zm13.605,17.839a22.859,22.859,0,0,1-13.591,0c-1.77-.666-2.18-1.331-2.18-1.5v-1.586a11.256,11.256,0,0,0,1.289.566,25.152,25.152,0,0,0,15.375,0,12.369,12.369,0,0,0,1.289-.566v1.586c-.014.17-.411.835-2.18,1.5Zm2.167-6.47v.014c-.029.212-.454.85-2.167,1.486a22.858,22.858,0,0,1-13.591,0c-1.77-.665-2.18-1.331-2.18-1.5v-1.586a11.386,11.386,0,0,0,1.289.566,25.152,25.152,0,0,0,15.375,0,12.526,12.526,0,0,0,1.289-.566Zm0-4.97v.015c-.029.212-.454.849-2.167,1.486a22.858,22.858,0,0,1-13.591,0c-1.77-.666-2.18-1.331-2.18-1.5v-1.586a11.25,11.25,0,0,0,1.289.566,25.151,25.151,0,0,0,15.375,0,12.362,12.362,0,0,0,1.289-.566Zm0,0" transform="translate(492.139 1937.742)"/>
    <path id="합치기_18" data-name="합치기 18" class="cls-2" d="M14.443,32.909.291,18.586A1,1,0,0,1,1,16.883H7.188V1a1,1,0,0,1,1-1H22.123a1,1,0,0,1,1,1V16.883h6.185a1,1,0,0,1,.711,1.7L15.866,32.909a1,1,0,0,1-1.423,0Z" transform="translate(669.543 2279)"/>
    <path id="합치기_19" data-name="합치기 19" class="cls-3" d="M10.893,25.128.3,14.675A1,1,0,0,1,1,12.963H5.324V1a1,1,0,0,1,1-1H16.872a1,1,0,0,1,1,1V12.963h4.316a1,1,0,0,1,.7,1.712L12.3,25.128a1,1,0,0,1-1.4,0Z" transform="translate(685.301 2283.594)"/>
  </g>
</svg>
