<svg xmlns="http://www.w3.org/2000/svg" width="203.15" height="30.235" viewBox="0 0 203.15 30.235">
    <defs>
        <style>
            .cls-1{fill:#b80023}.cls-2{fill:#fff}.cls-3{fill:#65625f}
        </style>
    </defs>
    <g id="logo_LGhellovision" transform="translate(-103.727 -453.942)">
        <path id="패스_141" d="M118.856 484.177a15.117 15.117 0 1 0-15.129-15.114 15.123 15.123 0 0 0 15.129 15.114" class="cls-1"/>
        <path id="패스_142" d="M129.876 469.223v13.265h4.218v-1.193h-3v-12.072z" class="cls-2" transform="translate(-11.628 -6.795)"/>
        <path id="패스_143" d="M120.821 472.835a1.814 1.814 0 1 0-1.812-1.811 1.812 1.812 0 0 0 1.812 1.811" class="cls-2" transform="translate(-6.796 -6.789)"/>
        <path id="패스_144" d="M121.438 458.372c-.158-.008-.459-.017-.6-.017a12.66 12.66 0 1 0 12.662 12.664v-.564h-9.045v1.166h7.838l-.006.183a11.478 11.478 0 0 1-19.567 7.328 11.474 11.474 0 0 1 8.118-19.588c.132 0 .454 0 .6.008z" class="cls-2" transform="translate(-1.975 -1.962)"/>
        <path id="패스_145" d="M194.485 475.057h3.7v3.443a10.5 10.5 0 0 1-3.281.519c-4.091 0-5.455-2.077-5.455-6.3 0-4.025 1.3-6.4 5.39-6.4a5.265 5.265 0 0 1 4.643 2.079l2.826-2.6c-1.722-2.467-4.742-3.214-7.567-3.214-6.366 0-9.71 3.476-9.71 10.1 0 6.592 3.02 10.163 9.678 10.163a14.47 14.47 0 0 0 7.663-1.915v-9.547h-7.891zm-19.419-12.181h-4.546v19.681h13.963v-3.832h-9.417z" class="cls-3" transform="translate(-29.703 -3.844)"/>
        <path id="패스_146" d="M326.764 484.726c-2.063 0-2.632-1.6-2.632-4.343 0-3.1.651-4.317 3.04-4.317 2.2 0 2.66 1.629 2.66 4.181 0 3.148-.6 4.479-3.068 4.479m.489-11.51c-4.995 0-7.113 2.361-7.113 7.138 0 4.479 1.521 7.221 6.543 7.221 4.859 0 7.14-2.307 7.14-7.085 0-4.67-1.52-7.275-6.569-7.275" class="cls-3" transform="translate(-96.238 -8.571)"/>
        <path id="패스_147" d="M276.79 478.753c.055-1.9.978-2.823 2.606-2.823 1.683 0 2.361 1.168 2.361 2.823zm8.85 1.3c0-3.909-1.765-6.841-6.136-6.841s-6.651 2.606-6.651 7.112c0 4.777 1.738 7.248 6.841 7.248a11.293 11.293 0 0 0 5.7-1.439l-.732-2.579a10.264 10.264 0 0 1-4.262 1.032 4.108 4.108 0 0 1-2.851-.87 3.7 3.7 0 0 1-.76-2.442h8.85z" class="cls-3" transform="translate(-75.21 -8.571)"/>
        <path id="패스_148" d="M256.581 463.109v19.68H252.4v-8.171h-7.873v8.171h-4.18v-19.68h4.18v8.062h7.873v-8.062z" class="cls-3" transform="translate(-60.755 -4.076)"/>
        <path id="사각형_174" d="M0 0H3.964V19.68H0z" class="cls-3" transform="translate(212.03 459.032)"/>
        <path id="사각형_175" d="M0 0H3.963V19.68H0z" class="cls-3" transform="translate(218.244 459.032)"/>
        <path id="패스_149" d="M118.856 484.177a15.117 15.117 0 1 0-15.129-15.114 15.122 15.122 0 0 0 15.129 15.114" class="cls-1"/>
        <path id="패스_150" d="M129.876 469.223v13.265h4.218v-1.193h-3v-12.072z" class="cls-2" transform="translate(-11.628 -6.795)"/>
        <path id="패스_151" d="M120.821 472.835a1.814 1.814 0 1 0-1.812-1.811 1.812 1.812 0 0 0 1.812 1.811" class="cls-2" transform="translate(-6.796 -6.789)"/>
        <path id="패스_152" d="M121.438 458.372c-.158-.008-.459-.017-.6-.017a12.661 12.661 0 1 0 12.662 12.664v-.564h-9.045v1.166h7.838l-.005.183a11.478 11.478 0 0 1-19.567 7.328 11.474 11.474 0 0 1 8.118-19.588c.132 0 .454 0 .6.008z" class="cls-2" transform="translate(-1.975 -1.962)"/>
        <path id="패스_153" d="M194.484 475.057h3.7v3.443a10.483 10.483 0 0 1-3.281.519c-4.092 0-5.455-2.078-5.455-6.3 0-4.025 1.3-6.4 5.39-6.4a5.264 5.264 0 0 1 4.643 2.079l2.827-2.6c-1.722-2.467-4.742-3.214-7.567-3.214-6.366 0-9.71 3.475-9.71 10.1 0 6.593 3.019 10.164 9.677 10.164a14.475 14.475 0 0 0 7.663-1.915v-9.548h-7.891zm-19.418-12.18h-4.546v19.681h13.963v-3.831h-9.417z" class="cls-3" transform="translate(-29.702 -3.844)"/>
        <path id="패스_154" d="M326.763 484.726c-2.063 0-2.633-1.6-2.633-4.343 0-3.1.651-4.317 3.04-4.317 2.2 0 2.661 1.629 2.661 4.181 0 3.148-.6 4.479-3.068 4.479m.489-11.51c-5 0-7.112 2.361-7.112 7.138 0 4.479 1.52 7.221 6.542 7.221 4.859 0 7.14-2.307 7.14-7.085 0-4.669-1.52-7.274-6.569-7.274" class="cls-3" transform="translate(-96.238 -8.571)"/>
        <path id="패스_155" d="M276.789 478.753c.054-1.9.978-2.823 2.606-2.823 1.683 0 2.361 1.168 2.361 2.823zm8.851 1.3c0-3.909-1.765-6.841-6.136-6.841s-6.651 2.606-6.651 7.112c0 4.777 1.738 7.247 6.841 7.247a11.294 11.294 0 0 0 5.7-1.438l-.732-2.579a10.266 10.266 0 0 1-4.262 1.032 4.107 4.107 0 0 1-2.851-.869 3.706 3.706 0 0 1-.76-2.442h8.851z" class="cls-3" transform="translate(-75.209 -8.571)"/>
        <path id="패스_156" d="M256.58 463.109v19.68h-4.18v-8.171h-7.872v8.171h-4.18v-19.68h4.18v8.062h7.872v-8.062z" class="cls-3" transform="translate(-60.754 -4.076)"/>
        <path id="사각형_176" d="M0 0H3.964V19.68H0z" class="cls-3" transform="translate(212.029 459.032)"/>
        <path id="사각형_177" d="M0 0H3.963V19.68H0z" class="cls-3" transform="translate(218.244 459.032)"/>
        <path id="사각형_178" d="M0 0H3.963V13.755H0z" class="cls-3" transform="translate(273.302 464.956)"/>
        <path id="사각형_179" d="M0 0H3.963V3.336H0z" class="cls-3" transform="translate(273.302 459.032)"/>
        <path id="사각형_180" d="M0 0H3.963V13.755H0z" class="cls-3" transform="translate(254.723 464.956)"/>
        <path id="사각형_181" d="M0 0H3.963V3.336H0z" class="cls-3" transform="translate(254.723 459.032)"/>
        <path id="패스_157" d="M425.914 484.725c-2.062 0-2.632-1.6-2.632-4.342 0-3.1.651-4.317 3.04-4.317 2.2 0 2.66 1.628 2.66 4.181 0 3.148-.6 4.479-3.068 4.479m.489-11.51c-4.995 0-7.112 2.362-7.112 7.139 0 4.479 1.52 7.221 6.542 7.221 4.859 0 7.14-2.307 7.14-7.085 0-4.67-1.52-7.276-6.569-7.276" class="cls-3" transform="translate(-140.329 -8.571)"/>
        <path id="패스_158" d="M446.982 473.516v13.737h3.952v-10.111a4.455 4.455 0 0 1 2.29-.709c1.936 0 2.344.762 2.344 2.289v8.531h3.952v-9.485c0-2.752-.981-4.579-4.279-4.579a8.165 8.165 0 0 0-4.361 1.172v-.845z" class="cls-3" transform="translate(-152.643 -8.559)"/>
        <path id="패스_159" d="M397.02 474.5a11.991 11.991 0 0 0-5.371-1.193c-3.826 0-5.858 1.627-5.858 4.149 0 2.577 1.654 3.744 3.769 4.232l1.549.353c1.383.3 2.251.76 2.251 1.437 0 .842-.868 1.275-2.116 1.275a10.093 10.093 0 0 1-4.557-1.166l-1 2.82a11.392 11.392 0 0 0 5.533 1.276c3.661 0 5.912-1.438 5.912-4.448a3.636 3.636 0 0 0-2.9-3.635c-.46-.136-1.3-.379-1.9-.515-1.439-.3-2.876-.6-2.876-1.682 0-.814.869-1.248 2.278-1.248a8.956 8.956 0 0 1 4.177 1z" class="cls-3" transform="translate(-125.384 -8.609)"/>
        <path id="패스_160" d="M355.1 463.075l-4.082 15.852h-.464l-4.08-15.852h-4.425l5.928 19.68h5.623l5.928-19.68z" class="cls-3" transform="translate(-105.982 -4.061)"/>
    </g>
</svg>
