<?xml version="1.0" encoding="utf-8"?>
<!-- Generator: Adobe Illustrator 16.0.0, SVG Export Plug-In . SVG Version: 6.00 Build 0)  -->
<!DOCTYPE svg PUBLIC "-//W3C//DTD SVG 1.1//EN" "http://www.w3.org/Graphics/SVG/1.1/DTD/svg11.dtd">
<svg version="1.1" id="Layer_1" xmlns="http://www.w3.org/2000/svg" xmlns:xlink="http://www.w3.org/1999/xlink" x="0px" y="0px"
	 width="16px" height="16px" viewBox="0 0 16 16" enable-background="new 0 0 16 16" xml:space="preserve">
<g>
	<path fill="#FFFFFF" stroke="#FFFFFF" stroke-width="0.6" stroke-miterlimit="10" d="M14.933,7.987l-1.859-1.878
		c0-0.002,0-0.004,0-0.008V2.234c0-0.254-0.207-0.463-0.463-0.463h-1.518c-0.254,0-0.462,0.209-0.462,0.463v1.113L8.612,1.169
		C8.45,0.992,8.233,0.896,8,0.896H7.999c-0.232,0-0.451,0.096-0.612,0.272L1.063,7.994C0.807,8.269,0.867,8.5,0.904,8.584
		c0.048,0.112,0.189,0.298,0.58,0.298H3.34v6.149c0,0.308,0.263,0.558,0.586,0.558h8.148c0.324,0,0.584-0.25,0.584-0.558V8.882
		h1.856c0.392,0,0.53-0.186,0.581-0.298C15.134,8.5,15.193,8.268,14.933,7.987z M14.515,8.368h-2.121
		c-0.078,0-0.153,0.039-0.204,0.103c-0.048,0.061-0.064,0.146-0.043,0.222v6.338c0,0.018-0.028,0.044-0.072,0.044H3.926
		c-0.044,0-0.072-0.026-0.072-0.044l0-6.339C3.875,8.615,3.859,8.532,3.81,8.47C3.761,8.405,3.686,8.368,3.605,8.368H1.484
		c-0.025,0-0.046,0-0.065-0.004c0.006-0.006,0.013-0.013,0.021-0.022l6.324-6.825c0.128-0.138,0.345-0.138,0.472,0l2.342,2.527
		c0.029,0.029,0.064,0.05,0.099,0.064c0.044,0.061,0.111,0.1,0.192,0.1c0.127,0,0.232-0.105,0.232-0.235V2.241h1.502V6.1
		c0,0.043,0.012,0.083,0.033,0.119c-0.021,0.083-0.004,0.176,0.061,0.242l1.862,1.881c0.01,0.009,0.016,0.016,0.02,0.022
		C14.56,8.368,14.541,8.368,14.515,8.368z"/>
	<path fill="#FFFFFF" stroke="#FFFFFF" stroke-width="0.6" stroke-miterlimit="10" d="M9.44,10.131H6.704
		c-0.422,0-0.765,0.343-0.765,0.763v2.148c0,0.422,0.342,0.767,0.765,0.767H9.44c0.423,0,0.765-0.345,0.765-0.767v-2.148
		C10.205,10.474,9.863,10.131,9.44,10.131z M9.83,13.042c0,0.216-0.174,0.39-0.39,0.39H6.704c-0.215,0-0.39-0.174-0.39-0.39v-2.148
		c0-0.214,0.174-0.389,0.39-0.389H9.44c0.216,0,0.39,0.175,0.39,0.389V13.042z"/>
</g>
</svg>
